%
M48
M72
T01C0.0240
T02C0.0320
T03C0.0360
T04C0.0400
T05C0.0440
T06C0.0450
T07C0.0520
T08C0.0787
T09C0.1260
T10C0.1300
%
T01
X10120Y16894
T02
X12600Y16474
X12600Y17474
X13600Y18974
X14600Y18974
X15600Y17474
X15600Y16474
X15600Y15474
X15600Y14474
X15100Y12974
X13600Y11474
X13600Y10474
X11100Y12974
X10100Y12974
X12600Y14474
X12600Y15474
X18100Y12974
X18600Y15474
X19600Y15474
X20600Y15474
X21600Y15474
X23100Y16474
X23100Y17474
X21600Y18474
X20600Y18474
X19600Y18474
X18600Y18474
X7100Y10724
X4100Y10724
X2100Y10474
X1350Y10974
X2100Y11474
X20100Y9724
X21100Y9724
X21100Y7974
X20100Y7974
X20100Y5974
X21100Y5974
X21100Y4224
X20100Y4224
X22100Y3974
X25100Y3974
X26100Y3974
X27100Y3974
T03
X2100Y3974
X2100Y4974
X2100Y5974
X2100Y6974
X2100Y7974
X2100Y8974
X11100Y14474
X11100Y15474
X11100Y16474
X11100Y17474
X17100Y17474
X17100Y16474
X17100Y15474
X17100Y14474
T04
X17880Y11864
X17880Y10084
X15320Y10084
X15320Y11864
X17100Y19474
X18100Y19474
X19100Y19474
X20100Y19474
X20100Y20474
X19100Y20474
X18100Y20474
X17100Y20474
X15100Y20474
X14100Y20474
X13100Y20474
X11100Y20474
X10100Y20474
X9100Y20474
X9100Y19474
X10100Y19474
X11100Y19474
T05
X21600Y13474
X21600Y12474
X21600Y11474
T06
X28600Y9524
X28600Y8424
X28600Y7024
X28600Y5924
T07
X28600Y16484
X28600Y18464
X5100Y18924
X5100Y13024
T08
X5478Y7702
X5478Y4946
X17289Y4946
X17289Y7702
T09
X28600Y4224
X28350Y20474
X1600Y20474
T10
X28500Y12474
M30
