G75*
%MOIN*%
%OFA0B0*%
%FSLAX25Y25*%
%IPPOS*%
%LPD*%
%AMOC8*
5,1,8,0,0,1.08239X$1,22.5*
%
%ADD10C,0.06480*%
%ADD11OC8,0.06300*%
%ADD12C,0.06300*%
%ADD13OC8,0.05760*%
%ADD14R,0.07400X0.07400*%
%ADD15OC8,0.07400*%
%ADD16C,0.09200*%
%ADD17OC8,0.06600*%
%ADD18C,0.07400*%
%ADD19C,0.07920*%
%ADD20C,0.07200*%
%ADD21OC8,0.10000*%
%ADD22C,0.11874*%
%ADD23OC8,0.06800*%
%ADD24C,0.08100*%
%ADD25C,0.03200*%
%ADD26C,0.02400*%
%ADD27C,0.01600*%
%ADD28C,0.16598*%
%ADD29C,0.01200*%
%ADD30C,0.04800*%
D10*
X0017760Y0039736D02*
X0024240Y0039736D01*
X0024240Y0049736D02*
X0017760Y0049736D01*
X0017760Y0059736D02*
X0024240Y0059736D01*
X0024240Y0069736D02*
X0017760Y0069736D01*
X0017760Y0079736D02*
X0024240Y0079736D01*
X0024240Y0089736D02*
X0017760Y0089736D01*
X0107760Y0144736D02*
X0114240Y0144736D01*
X0114240Y0154736D02*
X0107760Y0154736D01*
X0107760Y0164736D02*
X0114240Y0164736D01*
X0114240Y0174736D02*
X0107760Y0174736D01*
X0167760Y0174736D02*
X0174240Y0174736D01*
X0174240Y0164736D02*
X0167760Y0164736D01*
X0167760Y0154736D02*
X0174240Y0154736D01*
X0174240Y0144736D02*
X0167760Y0144736D01*
D11*
X0201000Y0097236D03*
X0201000Y0042236D03*
D12*
X0211000Y0042236D03*
X0211000Y0097236D03*
D13*
X0211000Y0079736D03*
X0201000Y0079736D03*
X0201000Y0059736D03*
X0211000Y0059736D03*
X0221000Y0039736D03*
X0251000Y0039736D03*
X0136000Y0104736D03*
X0136000Y0114736D03*
X0151000Y0129736D03*
X0181000Y0129736D03*
X0186000Y0154736D03*
X0196000Y0154736D03*
X0206000Y0154736D03*
X0216000Y0154736D03*
X0216000Y0184736D03*
X0206000Y0184736D03*
X0196000Y0184736D03*
X0186000Y0184736D03*
X0146000Y0189736D03*
X0136000Y0189736D03*
X0111000Y0129736D03*
X0101000Y0129736D03*
X0071000Y0107236D03*
X0041000Y0107236D03*
D14*
X0091000Y0194736D03*
D15*
X0101000Y0194736D03*
X0111000Y0194736D03*
X0111000Y0204736D03*
X0101000Y0204736D03*
X0091000Y0204736D03*
X0171000Y0204736D03*
X0181000Y0204736D03*
X0191000Y0204736D03*
X0201000Y0204736D03*
X0201000Y0194736D03*
X0191000Y0194736D03*
X0181000Y0194736D03*
X0171000Y0194736D03*
D16*
X0281400Y0184636D02*
X0290600Y0184636D01*
X0290600Y0164836D02*
X0281400Y0164836D01*
D17*
X0231000Y0164736D03*
X0231000Y0174736D03*
X0261000Y0039736D03*
X0271000Y0039736D03*
D18*
X0151000Y0204736D03*
X0141000Y0204736D03*
X0131000Y0204736D03*
X0021000Y0114736D03*
X0013500Y0109736D03*
X0021000Y0104736D03*
D19*
X0212040Y0114736D02*
X0219960Y0114736D01*
X0219960Y0124736D02*
X0212040Y0124736D01*
X0212040Y0134736D02*
X0219960Y0134736D01*
D20*
X0182400Y0118636D02*
X0175200Y0118636D01*
X0156800Y0118636D02*
X0149600Y0118636D01*
X0149600Y0100836D02*
X0156800Y0100836D01*
X0175200Y0100836D02*
X0182400Y0100836D01*
D21*
X0051000Y0130236D03*
X0051000Y0189236D03*
D22*
X0048843Y0077019D02*
X0060717Y0077019D01*
X0060717Y0049460D02*
X0048843Y0049460D01*
X0166953Y0049460D02*
X0178827Y0049460D01*
X0178827Y0077019D02*
X0166953Y0077019D01*
D23*
X0156000Y0144736D03*
X0156000Y0154736D03*
X0156000Y0164736D03*
X0156000Y0174736D03*
X0126000Y0174736D03*
X0126000Y0164736D03*
X0126000Y0154736D03*
X0126000Y0144736D03*
D24*
X0281950Y0095236D02*
X0290050Y0095236D01*
X0290050Y0084236D02*
X0281950Y0084236D01*
X0281950Y0070236D02*
X0290050Y0070236D01*
X0290050Y0059236D02*
X0281950Y0059236D01*
D25*
X0286000Y0095136D02*
X0266800Y0095136D01*
X0266800Y0161136D01*
X0286000Y0180336D01*
X0286000Y0184636D01*
X0286000Y0095236D02*
X0286000Y0095136D01*
X0266800Y0095136D02*
X0246400Y0095136D01*
X0211000Y0059736D01*
D26*
X0188800Y0129936D02*
X0181000Y0129936D01*
X0181000Y0129736D01*
X0180400Y0130536D01*
X0175600Y0135336D01*
X0148600Y0135336D01*
X0143200Y0129936D01*
X0112000Y0129936D01*
X0111000Y0129736D01*
X0110800Y0129336D01*
X0071200Y0089736D01*
X0021000Y0089736D01*
X0188800Y0129936D02*
X0200200Y0141336D01*
X0210400Y0141336D01*
X0221800Y0152736D01*
X0221800Y0156936D01*
X0196000Y0182736D01*
X0196000Y0184736D01*
D27*
X0006000Y0213636D02*
X0006000Y0034536D01*
X0016621Y0034536D01*
X0014792Y0035293D01*
X0013318Y0036767D01*
X0012520Y0038693D01*
X0012520Y0040778D01*
X0013318Y0042704D01*
X0014792Y0044178D01*
X0016138Y0044736D01*
X0014792Y0045293D01*
X0013318Y0046767D01*
X0012520Y0048693D01*
X0012520Y0050778D01*
X0013318Y0052704D01*
X0014792Y0054178D01*
X0016138Y0054736D01*
X0014792Y0055293D01*
X0013318Y0056767D01*
X0012520Y0058693D01*
X0012520Y0060778D01*
X0013318Y0062704D01*
X0014792Y0064178D01*
X0016138Y0064736D01*
X0014792Y0065293D01*
X0013318Y0066767D01*
X0012520Y0068693D01*
X0012520Y0070778D01*
X0013318Y0072704D01*
X0014792Y0074178D01*
X0016446Y0074863D01*
X0015825Y0075065D01*
X0015118Y0075425D01*
X0014477Y0075891D01*
X0013916Y0076452D01*
X0013449Y0077094D01*
X0013089Y0077801D01*
X0012844Y0078555D01*
X0012720Y0079339D01*
X0012720Y0079635D01*
X0020900Y0079635D01*
X0020900Y0079836D01*
X0012720Y0079836D01*
X0012720Y0080132D01*
X0012844Y0080916D01*
X0013089Y0081670D01*
X0013449Y0082377D01*
X0013916Y0083019D01*
X0014477Y0083580D01*
X0015118Y0084046D01*
X0015825Y0084406D01*
X0016446Y0084608D01*
X0014792Y0085293D01*
X0013318Y0086767D01*
X0012520Y0088693D01*
X0012520Y0090778D01*
X0013318Y0092704D01*
X0014792Y0094178D01*
X0016718Y0094976D01*
X0025282Y0094976D01*
X0027208Y0094178D01*
X0028450Y0092936D01*
X0069875Y0092936D01*
X0101995Y0125056D01*
X0101000Y0125056D01*
X0101000Y0129735D01*
X0101000Y0129735D01*
X0101000Y0125056D01*
X0099061Y0125056D01*
X0096320Y0127797D01*
X0096320Y0129735D01*
X0101000Y0129735D01*
X0101000Y0129736D01*
X0101000Y0134416D01*
X0099061Y0134416D01*
X0096320Y0131674D01*
X0096320Y0129736D01*
X0101000Y0129736D01*
X0101000Y0129736D01*
X0101000Y0134416D01*
X0102939Y0134416D01*
X0105680Y0131674D01*
X0105680Y0129736D01*
X0101000Y0129736D01*
X0101000Y0129735D01*
X0105680Y0129735D01*
X0105680Y0128741D01*
X0106120Y0129181D01*
X0106120Y0131757D01*
X0108979Y0134616D01*
X0113021Y0134616D01*
X0114501Y0133136D01*
X0141875Y0133136D01*
X0145887Y0137148D01*
X0146787Y0138048D01*
X0147963Y0138536D01*
X0150723Y0138536D01*
X0137323Y0151936D01*
X0130837Y0151936D01*
X0128495Y0149594D01*
X0131200Y0146889D01*
X0131200Y0144736D01*
X0126000Y0144736D01*
X0126000Y0144735D01*
X0126000Y0139536D01*
X0128154Y0139536D01*
X0131200Y0142582D01*
X0131200Y0144735D01*
X0126000Y0144735D01*
X0126000Y0144735D01*
X0126000Y0139536D01*
X0123846Y0139536D01*
X0120800Y0142582D01*
X0120800Y0144735D01*
X0126000Y0144735D01*
X0126000Y0144736D01*
X0120800Y0144736D01*
X0120800Y0146889D01*
X0123505Y0149594D01*
X0120600Y0152499D01*
X0120600Y0156972D01*
X0123363Y0159736D01*
X0120600Y0162499D01*
X0120600Y0166972D01*
X0123363Y0169736D01*
X0120600Y0172499D01*
X0120600Y0176972D01*
X0123763Y0180136D01*
X0128237Y0180136D01*
X0128600Y0179772D01*
X0128600Y0191259D01*
X0116500Y0203359D01*
X0116500Y0202457D01*
X0113920Y0199877D01*
X0116700Y0197097D01*
X0116700Y0192374D01*
X0114000Y0189674D01*
X0114000Y0179976D01*
X0115282Y0179976D01*
X0117208Y0179178D01*
X0118682Y0177704D01*
X0119480Y0175778D01*
X0119480Y0173693D01*
X0118682Y0171767D01*
X0117208Y0170293D01*
X0115862Y0169736D01*
X0117208Y0169178D01*
X0118682Y0167704D01*
X0119480Y0165778D01*
X0119480Y0163693D01*
X0118682Y0161767D01*
X0117208Y0160293D01*
X0115862Y0159736D01*
X0117208Y0159178D01*
X0118682Y0157704D01*
X0119480Y0155778D01*
X0119480Y0153693D01*
X0118682Y0151767D01*
X0117208Y0150293D01*
X0115554Y0149608D01*
X0116175Y0149406D01*
X0116882Y0149046D01*
X0117523Y0148580D01*
X0118084Y0148019D01*
X0118551Y0147377D01*
X0118911Y0146670D01*
X0119156Y0145916D01*
X0119280Y0145132D01*
X0119280Y0144836D01*
X0111100Y0144836D01*
X0111100Y0144635D01*
X0111100Y0139696D01*
X0114637Y0139696D01*
X0115420Y0139820D01*
X0116175Y0140065D01*
X0116882Y0140425D01*
X0117523Y0140891D01*
X0118084Y0141452D01*
X0118551Y0142094D01*
X0118911Y0142801D01*
X0119156Y0143555D01*
X0119280Y0144339D01*
X0119280Y0144635D01*
X0111100Y0144635D01*
X0110900Y0144635D01*
X0110900Y0139696D01*
X0107363Y0139696D01*
X0106580Y0139820D01*
X0105825Y0140065D01*
X0105118Y0140425D01*
X0104477Y0140891D01*
X0103916Y0141452D01*
X0103449Y0142094D01*
X0103089Y0142801D01*
X0102844Y0143555D01*
X0102720Y0144339D01*
X0102720Y0144635D01*
X0110900Y0144635D01*
X0110900Y0144836D01*
X0102720Y0144836D01*
X0102720Y0145132D01*
X0102844Y0145916D01*
X0103089Y0146670D01*
X0103449Y0147377D01*
X0103916Y0148019D01*
X0104477Y0148580D01*
X0105118Y0149046D01*
X0105825Y0149406D01*
X0106446Y0149608D01*
X0104792Y0150293D01*
X0103318Y0151767D01*
X0102520Y0153693D01*
X0102520Y0155778D01*
X0103318Y0157704D01*
X0104792Y0159178D01*
X0106138Y0159736D01*
X0104792Y0160293D01*
X0103318Y0161767D01*
X0103165Y0162136D01*
X0099277Y0162136D01*
X0045880Y0108739D01*
X0045880Y0105214D01*
X0043021Y0102356D01*
X0038979Y0102356D01*
X0036120Y0105214D01*
X0036120Y0109257D01*
X0038979Y0112116D01*
X0041903Y0112116D01*
X0053023Y0123236D01*
X0048101Y0123236D01*
X0044000Y0127336D01*
X0044000Y0133135D01*
X0048101Y0137236D01*
X0053899Y0137236D01*
X0058000Y0133135D01*
X0058000Y0128212D01*
X0096727Y0166940D01*
X0097186Y0167130D01*
X0096800Y0168060D01*
X0096800Y0169811D01*
X0097470Y0171428D01*
X0098600Y0172558D01*
X0098600Y0189074D01*
X0096700Y0190975D01*
X0096700Y0190207D01*
X0095528Y0189036D01*
X0086472Y0189036D01*
X0085300Y0190207D01*
X0085300Y0199264D01*
X0086472Y0200436D01*
X0087239Y0200436D01*
X0085300Y0202374D01*
X0085300Y0207097D01*
X0088639Y0210436D01*
X0093361Y0210436D01*
X0096000Y0207797D01*
X0098639Y0210436D01*
X0103361Y0210436D01*
X0104092Y0209704D01*
X0106196Y0211808D01*
X0106927Y0212540D01*
X0107883Y0212936D01*
X0113717Y0212936D01*
X0114673Y0212540D01*
X0132673Y0194540D01*
X0133404Y0193808D01*
X0133419Y0193773D01*
X0134061Y0194416D01*
X0136000Y0194416D01*
X0136000Y0189736D01*
X0136000Y0189736D01*
X0136000Y0194416D01*
X0137939Y0194416D01*
X0140680Y0191674D01*
X0140680Y0189736D01*
X0136000Y0189736D01*
X0136000Y0189735D01*
X0136000Y0185056D01*
X0137939Y0185056D01*
X0140680Y0187797D01*
X0140680Y0189735D01*
X0136000Y0189735D01*
X0136000Y0189735D01*
X0136000Y0185056D01*
X0134061Y0185056D01*
X0133800Y0185317D01*
X0133800Y0170612D01*
X0150600Y0153812D01*
X0150600Y0156972D01*
X0153363Y0159736D01*
X0150600Y0162499D01*
X0150600Y0166972D01*
X0153363Y0169736D01*
X0150600Y0172499D01*
X0150600Y0176972D01*
X0153763Y0180136D01*
X0158237Y0180136D01*
X0161400Y0176972D01*
X0161400Y0172499D01*
X0158637Y0169736D01*
X0161400Y0166972D01*
X0161400Y0162499D01*
X0158637Y0159736D01*
X0161400Y0156972D01*
X0161400Y0152499D01*
X0158637Y0149736D01*
X0161400Y0146972D01*
X0161400Y0142499D01*
X0161037Y0142136D01*
X0163165Y0142136D01*
X0162520Y0143693D01*
X0162520Y0145778D01*
X0163318Y0147704D01*
X0164792Y0149178D01*
X0166138Y0149736D01*
X0164792Y0150293D01*
X0163318Y0151767D01*
X0162520Y0153693D01*
X0162520Y0155778D01*
X0163318Y0157704D01*
X0164792Y0159178D01*
X0166138Y0159736D01*
X0164792Y0160293D01*
X0163318Y0161767D01*
X0162520Y0163693D01*
X0162520Y0165778D01*
X0163318Y0167704D01*
X0164792Y0169178D01*
X0166138Y0169736D01*
X0164792Y0170293D01*
X0163318Y0171767D01*
X0162520Y0173693D01*
X0162520Y0175778D01*
X0163318Y0177704D01*
X0164792Y0179178D01*
X0166718Y0179976D01*
X0175282Y0179976D01*
X0177208Y0179178D01*
X0178682Y0177704D01*
X0179480Y0175778D01*
X0179480Y0173693D01*
X0178682Y0171767D01*
X0177208Y0170293D01*
X0175862Y0169736D01*
X0177208Y0169178D01*
X0178682Y0167704D01*
X0179480Y0165778D01*
X0179480Y0163693D01*
X0178682Y0161767D01*
X0177208Y0160293D01*
X0175862Y0159736D01*
X0177208Y0159178D01*
X0178682Y0157704D01*
X0179480Y0155778D01*
X0179480Y0153693D01*
X0178682Y0151767D01*
X0177208Y0150293D01*
X0175862Y0149736D01*
X0177208Y0149178D01*
X0178682Y0147704D01*
X0179480Y0145778D01*
X0179480Y0143693D01*
X0178835Y0142136D01*
X0192523Y0142136D01*
X0201596Y0151208D01*
X0202111Y0151723D01*
X0201120Y0152714D01*
X0201120Y0156757D01*
X0203979Y0159616D01*
X0208021Y0159616D01*
X0210880Y0156757D01*
X0210880Y0153292D01*
X0211120Y0153532D01*
X0211120Y0156757D01*
X0213979Y0159616D01*
X0214595Y0159616D01*
X0194355Y0179856D01*
X0193979Y0179856D01*
X0191120Y0182714D01*
X0191120Y0186757D01*
X0193979Y0189616D01*
X0198021Y0189616D01*
X0200880Y0186757D01*
X0200880Y0182714D01*
X0200713Y0182548D01*
X0223613Y0159648D01*
X0224513Y0158748D01*
X0225000Y0157572D01*
X0225000Y0152099D01*
X0224513Y0150923D01*
X0214285Y0140696D01*
X0221146Y0140696D01*
X0223336Y0139788D01*
X0225013Y0138112D01*
X0225920Y0135921D01*
X0225920Y0133550D01*
X0225013Y0131359D01*
X0223389Y0129736D01*
X0225013Y0128112D01*
X0225920Y0125921D01*
X0225920Y0123550D01*
X0225013Y0121359D01*
X0223336Y0119683D01*
X0223090Y0119581D01*
X0223712Y0119129D01*
X0224353Y0118488D01*
X0224886Y0117754D01*
X0225298Y0116947D01*
X0225578Y0116084D01*
X0225720Y0115189D01*
X0225720Y0115036D01*
X0216300Y0115036D01*
X0216300Y0114435D01*
X0216300Y0108976D01*
X0220413Y0108976D01*
X0221309Y0109117D01*
X0222171Y0109398D01*
X0222979Y0109809D01*
X0223712Y0110342D01*
X0224353Y0110983D01*
X0224886Y0111717D01*
X0225298Y0112524D01*
X0225578Y0113387D01*
X0225720Y0114282D01*
X0225720Y0114435D01*
X0216300Y0114435D01*
X0215700Y0114435D01*
X0215700Y0108976D01*
X0211587Y0108976D01*
X0210691Y0109117D01*
X0209829Y0109398D01*
X0209021Y0109809D01*
X0208288Y0110342D01*
X0207647Y0110983D01*
X0207114Y0111717D01*
X0206702Y0112524D01*
X0206422Y0113387D01*
X0206280Y0114282D01*
X0206280Y0114435D01*
X0215700Y0114435D01*
X0215700Y0115036D01*
X0206280Y0115036D01*
X0206280Y0115189D01*
X0206422Y0116084D01*
X0206702Y0116947D01*
X0207114Y0117754D01*
X0207647Y0118488D01*
X0208288Y0119129D01*
X0208910Y0119581D01*
X0208664Y0119683D01*
X0206987Y0121359D01*
X0206080Y0123550D01*
X0206080Y0125921D01*
X0206987Y0128112D01*
X0208611Y0129736D01*
X0206987Y0131359D01*
X0206080Y0133550D01*
X0206080Y0135921D01*
X0206987Y0138112D01*
X0207011Y0138136D01*
X0201525Y0138136D01*
X0191513Y0128123D01*
X0190613Y0127223D01*
X0189437Y0126736D01*
X0184901Y0126736D01*
X0183021Y0124856D01*
X0178979Y0124856D01*
X0176120Y0127714D01*
X0176120Y0130290D01*
X0174275Y0132136D01*
X0155501Y0132136D01*
X0155880Y0131757D01*
X0155880Y0127714D01*
X0153021Y0124856D01*
X0148979Y0124856D01*
X0146120Y0127714D01*
X0146120Y0128330D01*
X0145013Y0127223D01*
X0143837Y0126736D01*
X0114901Y0126736D01*
X0113021Y0124856D01*
X0110845Y0124856D01*
X0073013Y0087023D01*
X0071837Y0086536D01*
X0028450Y0086536D01*
X0027208Y0085293D01*
X0025554Y0084608D01*
X0026175Y0084406D01*
X0026882Y0084046D01*
X0027523Y0083580D01*
X0028084Y0083019D01*
X0028551Y0082377D01*
X0028911Y0081670D01*
X0029156Y0080916D01*
X0029280Y0080132D01*
X0029280Y0079836D01*
X0021100Y0079836D01*
X0021100Y0079635D01*
X0029280Y0079635D01*
X0029280Y0079339D01*
X0029156Y0078555D01*
X0028911Y0077801D01*
X0028551Y0077094D01*
X0028084Y0076452D01*
X0027523Y0075891D01*
X0026882Y0075425D01*
X0026175Y0075065D01*
X0025554Y0074863D01*
X0027208Y0074178D01*
X0028682Y0072704D01*
X0029480Y0070778D01*
X0029480Y0068693D01*
X0028682Y0066767D01*
X0027208Y0065293D01*
X0025862Y0064736D01*
X0027208Y0064178D01*
X0028682Y0062704D01*
X0029480Y0060778D01*
X0029480Y0058693D01*
X0028682Y0056767D01*
X0027208Y0055293D01*
X0025862Y0054736D01*
X0027208Y0054178D01*
X0028682Y0052704D01*
X0029480Y0050778D01*
X0029480Y0048693D01*
X0028682Y0046767D01*
X0027208Y0045293D01*
X0025862Y0044736D01*
X0027208Y0044178D01*
X0028682Y0042704D01*
X0029480Y0040778D01*
X0029480Y0038693D01*
X0028682Y0036767D01*
X0027208Y0035293D01*
X0025379Y0034536D01*
X0258705Y0034536D01*
X0255703Y0037537D01*
X0253021Y0034856D01*
X0248979Y0034856D01*
X0246120Y0037714D01*
X0246120Y0041757D01*
X0248979Y0044616D01*
X0253021Y0044616D01*
X0255703Y0041934D01*
X0258805Y0045036D01*
X0263195Y0045036D01*
X0266141Y0042089D01*
X0268888Y0044836D01*
X0271000Y0044836D01*
X0271000Y0039736D01*
X0271000Y0039736D01*
X0271000Y0044836D01*
X0273112Y0044836D01*
X0276100Y0041848D01*
X0276100Y0039736D01*
X0271000Y0039736D01*
X0271000Y0039735D01*
X0271000Y0034636D01*
X0273112Y0034636D01*
X0276100Y0037623D01*
X0276100Y0039735D01*
X0271000Y0039735D01*
X0271000Y0039735D01*
X0271000Y0034636D01*
X0268888Y0034636D01*
X0266141Y0037382D01*
X0263295Y0034536D01*
X0296121Y0034536D01*
X0296121Y0111391D01*
X0295622Y0110892D01*
X0291678Y0108614D01*
X0287278Y0107436D01*
X0282722Y0107436D01*
X0278322Y0108614D01*
X0274378Y0110892D01*
X0271157Y0114113D01*
X0270400Y0115423D01*
X0270400Y0098736D01*
X0276894Y0098736D01*
X0278523Y0100364D01*
X0280747Y0101286D01*
X0291253Y0101286D01*
X0293477Y0100364D01*
X0295179Y0098663D01*
X0296100Y0096439D01*
X0296100Y0094032D01*
X0295179Y0091808D01*
X0293477Y0090107D01*
X0292581Y0089736D01*
X0293477Y0089364D01*
X0295179Y0087663D01*
X0296100Y0085439D01*
X0296100Y0083032D01*
X0295179Y0080808D01*
X0293477Y0079107D01*
X0291253Y0078186D01*
X0280747Y0078186D01*
X0278523Y0079107D01*
X0276821Y0080808D01*
X0275900Y0083032D01*
X0275900Y0085439D01*
X0276821Y0087663D01*
X0278523Y0089364D01*
X0279419Y0089736D01*
X0278523Y0090107D01*
X0277094Y0091536D01*
X0247891Y0091536D01*
X0215880Y0059524D01*
X0215880Y0057714D01*
X0213021Y0054856D01*
X0208979Y0054856D01*
X0206120Y0057714D01*
X0206120Y0061757D01*
X0208979Y0064616D01*
X0210789Y0064616D01*
X0244361Y0098187D01*
X0245684Y0098736D01*
X0263200Y0098736D01*
X0263200Y0161852D01*
X0263748Y0163175D01*
X0264761Y0164187D01*
X0279042Y0178469D01*
X0277661Y0179040D01*
X0275805Y0180897D01*
X0274800Y0183323D01*
X0274800Y0185948D01*
X0275805Y0188374D01*
X0277661Y0190231D01*
X0280087Y0191236D01*
X0291913Y0191236D01*
X0294339Y0190231D01*
X0296121Y0188448D01*
X0296121Y0213636D01*
X0006000Y0213636D01*
X0006000Y0213564D02*
X0296121Y0213564D01*
X0296121Y0211966D02*
X0115247Y0211966D01*
X0116845Y0210367D02*
X0129702Y0210367D01*
X0129866Y0210436D02*
X0127771Y0209568D01*
X0126168Y0207964D01*
X0125300Y0205869D01*
X0125300Y0203602D01*
X0126168Y0201507D01*
X0127771Y0199903D01*
X0129866Y0199036D01*
X0132134Y0199036D01*
X0134229Y0199903D01*
X0135832Y0201507D01*
X0136000Y0201912D01*
X0136168Y0201507D01*
X0137771Y0199903D01*
X0139866Y0199036D01*
X0142134Y0199036D01*
X0144229Y0199903D01*
X0145832Y0201507D01*
X0146000Y0201912D01*
X0146168Y0201507D01*
X0147771Y0199903D01*
X0149866Y0199036D01*
X0152134Y0199036D01*
X0154229Y0199903D01*
X0155832Y0201507D01*
X0156700Y0203602D01*
X0156700Y0205869D01*
X0155832Y0207964D01*
X0154229Y0209568D01*
X0152134Y0210436D01*
X0149866Y0210436D01*
X0147771Y0209568D01*
X0146168Y0207964D01*
X0146000Y0207559D01*
X0145832Y0207964D01*
X0144229Y0209568D01*
X0142134Y0210436D01*
X0139866Y0210436D01*
X0137771Y0209568D01*
X0136168Y0207964D01*
X0136000Y0207559D01*
X0135832Y0207964D01*
X0134229Y0209568D01*
X0132134Y0210436D01*
X0129866Y0210436D01*
X0132298Y0210367D02*
X0139702Y0210367D01*
X0142298Y0210367D02*
X0149702Y0210367D01*
X0152298Y0210367D02*
X0296121Y0210367D01*
X0296121Y0208769D02*
X0204745Y0208769D01*
X0203278Y0210236D02*
X0206500Y0207014D01*
X0206500Y0204936D01*
X0201200Y0204936D01*
X0200800Y0204936D01*
X0200800Y0210236D01*
X0198722Y0210236D01*
X0196000Y0207514D01*
X0193278Y0210236D01*
X0191200Y0210236D01*
X0191200Y0204936D01*
X0190800Y0204936D01*
X0190800Y0210236D01*
X0188722Y0210236D01*
X0186000Y0207514D01*
X0183278Y0210236D01*
X0181200Y0210236D01*
X0181200Y0204936D01*
X0180800Y0204936D01*
X0180800Y0210236D01*
X0178722Y0210236D01*
X0176000Y0207514D01*
X0173278Y0210236D01*
X0171200Y0210236D01*
X0171200Y0204936D01*
X0170800Y0204936D01*
X0170800Y0210236D01*
X0168722Y0210236D01*
X0165500Y0207014D01*
X0165500Y0204936D01*
X0170800Y0204936D01*
X0170800Y0204535D01*
X0165500Y0204535D01*
X0165500Y0202457D01*
X0168080Y0199877D01*
X0165300Y0197097D01*
X0165300Y0192374D01*
X0168639Y0189036D01*
X0173361Y0189036D01*
X0176000Y0191675D01*
X0178639Y0189036D01*
X0183361Y0189036D01*
X0186000Y0191675D01*
X0188639Y0189036D01*
X0193361Y0189036D01*
X0196000Y0191675D01*
X0198639Y0189036D01*
X0203361Y0189036D01*
X0206700Y0192374D01*
X0206700Y0197097D01*
X0203920Y0199877D01*
X0206500Y0202457D01*
X0206500Y0204535D01*
X0201200Y0204535D01*
X0201200Y0204936D01*
X0201200Y0210236D01*
X0203278Y0210236D01*
X0201200Y0208769D02*
X0200800Y0208769D01*
X0200800Y0207170D02*
X0201200Y0207170D01*
X0201200Y0205572D02*
X0200800Y0205572D01*
X0200800Y0204936D02*
X0200800Y0204535D01*
X0196500Y0204535D01*
X0191200Y0204535D01*
X0191200Y0204936D01*
X0200800Y0204936D01*
X0206500Y0205572D02*
X0296121Y0205572D01*
X0296121Y0207170D02*
X0206343Y0207170D01*
X0206500Y0203973D02*
X0296121Y0203973D01*
X0296121Y0202375D02*
X0206417Y0202375D01*
X0204819Y0200776D02*
X0296121Y0200776D01*
X0296121Y0199178D02*
X0204619Y0199178D01*
X0206217Y0197579D02*
X0296121Y0197579D01*
X0296121Y0195981D02*
X0206700Y0195981D01*
X0206700Y0194382D02*
X0296121Y0194382D01*
X0296121Y0192784D02*
X0206700Y0192784D01*
X0205511Y0191185D02*
X0279966Y0191185D01*
X0277017Y0189587D02*
X0218050Y0189587D01*
X0218021Y0189616D02*
X0213979Y0189616D01*
X0211120Y0186757D01*
X0211120Y0182714D01*
X0213979Y0179856D01*
X0218021Y0179856D01*
X0220880Y0182714D01*
X0220880Y0186757D01*
X0218021Y0189616D01*
X0219649Y0187988D02*
X0275645Y0187988D01*
X0274983Y0186390D02*
X0220880Y0186390D01*
X0220880Y0184791D02*
X0274800Y0184791D01*
X0274854Y0183193D02*
X0220880Y0183193D01*
X0219760Y0181594D02*
X0275516Y0181594D01*
X0276706Y0179996D02*
X0218161Y0179996D01*
X0213839Y0179996D02*
X0208161Y0179996D01*
X0208021Y0179856D02*
X0210880Y0182714D01*
X0210880Y0186757D01*
X0208021Y0189616D01*
X0203979Y0189616D01*
X0201120Y0186757D01*
X0201120Y0182714D01*
X0203979Y0179856D01*
X0208021Y0179856D01*
X0209760Y0181594D02*
X0212240Y0181594D01*
X0211120Y0183193D02*
X0210880Y0183193D01*
X0210880Y0184791D02*
X0211120Y0184791D01*
X0211120Y0186390D02*
X0210880Y0186390D01*
X0209649Y0187988D02*
X0212351Y0187988D01*
X0213950Y0189587D02*
X0208050Y0189587D01*
X0203950Y0189587D02*
X0203912Y0189587D01*
X0202351Y0187988D02*
X0199649Y0187988D01*
X0200880Y0186390D02*
X0201120Y0186390D01*
X0201120Y0184791D02*
X0200880Y0184791D01*
X0200880Y0183193D02*
X0201120Y0183193D01*
X0201667Y0181594D02*
X0202240Y0181594D01*
X0203265Y0179996D02*
X0203839Y0179996D01*
X0204864Y0178397D02*
X0227449Y0178397D01*
X0228888Y0179836D02*
X0225900Y0176848D01*
X0225900Y0174736D01*
X0231000Y0174736D01*
X0231000Y0179836D01*
X0228888Y0179836D01*
X0231000Y0179836D02*
X0231000Y0174736D01*
X0231000Y0174736D01*
X0236100Y0174736D01*
X0236100Y0176848D01*
X0233112Y0179836D01*
X0231000Y0179836D01*
X0231000Y0178397D02*
X0231000Y0178397D01*
X0231000Y0176799D02*
X0231000Y0176799D01*
X0231000Y0175200D02*
X0231000Y0175200D01*
X0231000Y0174736D02*
X0231000Y0174735D01*
X0236100Y0174735D01*
X0236100Y0172623D01*
X0233354Y0169877D01*
X0236300Y0166931D01*
X0236300Y0162540D01*
X0233195Y0159436D01*
X0228805Y0159436D01*
X0225700Y0162540D01*
X0225700Y0166931D01*
X0228646Y0169877D01*
X0225900Y0172623D01*
X0225900Y0174735D01*
X0231000Y0174735D01*
X0231000Y0174736D01*
X0236100Y0175200D02*
X0275773Y0175200D01*
X0274175Y0173602D02*
X0236100Y0173602D01*
X0235480Y0172003D02*
X0272576Y0172003D01*
X0270978Y0170405D02*
X0233881Y0170405D01*
X0234425Y0168806D02*
X0269379Y0168806D01*
X0267781Y0167207D02*
X0236023Y0167207D01*
X0236300Y0165609D02*
X0266182Y0165609D01*
X0264584Y0164010D02*
X0236300Y0164010D01*
X0236172Y0162412D02*
X0263432Y0162412D01*
X0263200Y0160813D02*
X0234573Y0160813D01*
X0227427Y0160813D02*
X0222448Y0160813D01*
X0224046Y0159215D02*
X0263200Y0159215D01*
X0263200Y0157616D02*
X0224982Y0157616D01*
X0225000Y0156018D02*
X0263200Y0156018D01*
X0263200Y0154419D02*
X0225000Y0154419D01*
X0225000Y0152821D02*
X0263200Y0152821D01*
X0263200Y0151222D02*
X0224637Y0151222D01*
X0223214Y0149624D02*
X0263200Y0149624D01*
X0263200Y0148025D02*
X0221615Y0148025D01*
X0220017Y0146427D02*
X0263200Y0146427D01*
X0263200Y0144828D02*
X0218418Y0144828D01*
X0216820Y0143230D02*
X0263200Y0143230D01*
X0263200Y0141631D02*
X0215221Y0141631D01*
X0222745Y0140033D02*
X0263200Y0140033D01*
X0263200Y0138434D02*
X0224690Y0138434D01*
X0225541Y0136836D02*
X0263200Y0136836D01*
X0263200Y0135237D02*
X0225920Y0135237D01*
X0225920Y0133639D02*
X0263200Y0133639D01*
X0263200Y0132040D02*
X0225295Y0132040D01*
X0224095Y0130442D02*
X0263200Y0130442D01*
X0263200Y0128843D02*
X0224281Y0128843D01*
X0225372Y0127245D02*
X0263200Y0127245D01*
X0263200Y0125646D02*
X0225920Y0125646D01*
X0225920Y0124048D02*
X0263200Y0124048D01*
X0263200Y0122449D02*
X0225464Y0122449D01*
X0224504Y0120851D02*
X0263200Y0120851D01*
X0263200Y0119252D02*
X0223543Y0119252D01*
X0224938Y0117654D02*
X0263200Y0117654D01*
X0263200Y0116055D02*
X0225583Y0116055D01*
X0225406Y0112858D02*
X0263200Y0112858D01*
X0263200Y0111260D02*
X0224554Y0111260D01*
X0222688Y0109661D02*
X0263200Y0109661D01*
X0263200Y0108063D02*
X0139574Y0108063D01*
X0140880Y0106757D02*
X0138021Y0109616D01*
X0133979Y0109616D01*
X0131120Y0106757D01*
X0131120Y0102714D01*
X0133979Y0099856D01*
X0138021Y0099856D01*
X0140880Y0102714D01*
X0140880Y0106757D01*
X0140880Y0106464D02*
X0263200Y0106464D01*
X0263200Y0104866D02*
X0186290Y0104866D01*
X0185572Y0105583D02*
X0183514Y0106436D01*
X0174086Y0106436D01*
X0172028Y0105583D01*
X0170453Y0104008D01*
X0169600Y0101949D01*
X0169600Y0099722D01*
X0170453Y0097663D01*
X0172028Y0096088D01*
X0174086Y0095236D01*
X0183514Y0095236D01*
X0185572Y0096088D01*
X0187147Y0097663D01*
X0188000Y0099722D01*
X0188000Y0101949D01*
X0187147Y0104008D01*
X0185572Y0105583D01*
X0187454Y0103267D02*
X0263200Y0103267D01*
X0263200Y0101669D02*
X0213755Y0101669D01*
X0213917Y0101601D02*
X0212024Y0102386D01*
X0209976Y0102386D01*
X0208083Y0101601D01*
X0206634Y0100153D01*
X0205950Y0098501D01*
X0205950Y0099286D01*
X0203050Y0102186D01*
X0201000Y0102185D01*
X0201000Y0097236D01*
X0201000Y0102186D01*
X0198950Y0102186D01*
X0196050Y0099286D01*
X0196050Y0097236D01*
X0201000Y0097236D01*
X0201000Y0097236D01*
X0201000Y0097235D01*
X0201000Y0092286D01*
X0203050Y0092286D01*
X0205950Y0095185D01*
X0205950Y0095970D01*
X0206634Y0094318D01*
X0208083Y0092870D01*
X0209976Y0092086D01*
X0212024Y0092086D01*
X0213917Y0092870D01*
X0215366Y0094318D01*
X0216150Y0096211D01*
X0216150Y0098260D01*
X0215366Y0100153D01*
X0213917Y0101601D01*
X0215400Y0100070D02*
X0263200Y0100070D01*
X0270400Y0100070D02*
X0278229Y0100070D01*
X0270400Y0101669D02*
X0296121Y0101669D01*
X0296121Y0103267D02*
X0270400Y0103267D01*
X0270400Y0104866D02*
X0296121Y0104866D01*
X0296121Y0106464D02*
X0270400Y0106464D01*
X0270400Y0108063D02*
X0280382Y0108063D01*
X0276510Y0109661D02*
X0270400Y0109661D01*
X0270400Y0111260D02*
X0274010Y0111260D01*
X0272412Y0112858D02*
X0270400Y0112858D01*
X0270400Y0114457D02*
X0270958Y0114457D01*
X0263200Y0114457D02*
X0216300Y0114457D01*
X0215700Y0114457D02*
X0186141Y0114457D01*
X0185572Y0113888D02*
X0187147Y0115463D01*
X0188000Y0117522D01*
X0188000Y0119749D01*
X0187147Y0121808D01*
X0185572Y0123383D01*
X0183514Y0124236D01*
X0174086Y0124236D01*
X0172028Y0123383D01*
X0170453Y0121808D01*
X0169600Y0119749D01*
X0169600Y0117522D01*
X0170453Y0115463D01*
X0172028Y0113888D01*
X0174086Y0113036D01*
X0183514Y0113036D01*
X0185572Y0113888D01*
X0187393Y0116055D02*
X0206417Y0116055D01*
X0207062Y0117654D02*
X0188000Y0117654D01*
X0188000Y0119252D02*
X0208457Y0119252D01*
X0207496Y0120851D02*
X0187544Y0120851D01*
X0186506Y0122449D02*
X0206536Y0122449D01*
X0206080Y0124048D02*
X0183967Y0124048D01*
X0183812Y0125646D02*
X0206080Y0125646D01*
X0206628Y0127245D02*
X0190635Y0127245D01*
X0192233Y0128843D02*
X0207719Y0128843D01*
X0207905Y0130442D02*
X0193832Y0130442D01*
X0195430Y0132040D02*
X0206705Y0132040D01*
X0206080Y0133639D02*
X0197029Y0133639D01*
X0198627Y0135237D02*
X0206080Y0135237D01*
X0206459Y0136836D02*
X0200226Y0136836D01*
X0193617Y0143230D02*
X0179288Y0143230D01*
X0179480Y0144828D02*
X0195216Y0144828D01*
X0196814Y0146427D02*
X0179211Y0146427D01*
X0178361Y0148025D02*
X0198413Y0148025D01*
X0198021Y0149856D02*
X0200880Y0152714D01*
X0200880Y0156757D01*
X0198021Y0159616D01*
X0193979Y0159616D01*
X0191120Y0156757D01*
X0191120Y0152714D01*
X0193979Y0149856D01*
X0198021Y0149856D01*
X0199388Y0151222D02*
X0201610Y0151222D01*
X0201120Y0152821D02*
X0200880Y0152821D01*
X0200880Y0154419D02*
X0201120Y0154419D01*
X0201120Y0156018D02*
X0200880Y0156018D01*
X0200020Y0157616D02*
X0201980Y0157616D01*
X0203578Y0159215D02*
X0198422Y0159215D01*
X0193578Y0159215D02*
X0188422Y0159215D01*
X0188021Y0159616D02*
X0183979Y0159616D01*
X0181120Y0156757D01*
X0181120Y0152714D01*
X0183979Y0149856D01*
X0188021Y0149856D01*
X0190880Y0152714D01*
X0190880Y0156757D01*
X0188021Y0159616D01*
X0190020Y0157616D02*
X0191980Y0157616D01*
X0191120Y0156018D02*
X0190880Y0156018D01*
X0190880Y0154419D02*
X0191120Y0154419D01*
X0191120Y0152821D02*
X0190880Y0152821D01*
X0189388Y0151222D02*
X0192612Y0151222D01*
X0200011Y0149624D02*
X0176131Y0149624D01*
X0178137Y0151222D02*
X0182612Y0151222D01*
X0181120Y0152821D02*
X0179119Y0152821D01*
X0179480Y0154419D02*
X0181120Y0154419D01*
X0181120Y0156018D02*
X0179381Y0156018D01*
X0178718Y0157616D02*
X0181980Y0157616D01*
X0183578Y0159215D02*
X0177118Y0159215D01*
X0177728Y0160813D02*
X0213397Y0160813D01*
X0213578Y0159215D02*
X0208422Y0159215D01*
X0210020Y0157616D02*
X0211980Y0157616D01*
X0211120Y0156018D02*
X0210880Y0156018D01*
X0210880Y0154419D02*
X0211120Y0154419D01*
X0211798Y0162412D02*
X0178949Y0162412D01*
X0179480Y0164010D02*
X0210200Y0164010D01*
X0208601Y0165609D02*
X0179480Y0165609D01*
X0178888Y0167207D02*
X0207003Y0167207D01*
X0205404Y0168806D02*
X0177580Y0168806D01*
X0177319Y0170405D02*
X0203806Y0170405D01*
X0202207Y0172003D02*
X0178780Y0172003D01*
X0179442Y0173602D02*
X0200608Y0173602D01*
X0199010Y0175200D02*
X0179480Y0175200D01*
X0179057Y0176799D02*
X0197411Y0176799D01*
X0195813Y0178397D02*
X0177989Y0178397D01*
X0182240Y0181594D02*
X0133800Y0181594D01*
X0133800Y0179996D02*
X0153623Y0179996D01*
X0152025Y0178397D02*
X0133800Y0178397D01*
X0133800Y0176799D02*
X0150600Y0176799D01*
X0150600Y0175200D02*
X0133800Y0175200D01*
X0133800Y0173602D02*
X0150600Y0173602D01*
X0151096Y0172003D02*
X0133800Y0172003D01*
X0134008Y0170405D02*
X0152694Y0170405D01*
X0152434Y0168806D02*
X0135606Y0168806D01*
X0137205Y0167207D02*
X0150835Y0167207D01*
X0150600Y0165609D02*
X0138803Y0165609D01*
X0140402Y0164010D02*
X0150600Y0164010D01*
X0150687Y0162412D02*
X0142000Y0162412D01*
X0143599Y0160813D02*
X0152285Y0160813D01*
X0152843Y0159215D02*
X0145198Y0159215D01*
X0146796Y0157616D02*
X0151244Y0157616D01*
X0150600Y0156018D02*
X0148395Y0156018D01*
X0149993Y0154419D02*
X0150600Y0154419D01*
X0158748Y0149624D02*
X0165869Y0149624D01*
X0163863Y0151222D02*
X0160124Y0151222D01*
X0161400Y0152821D02*
X0162881Y0152821D01*
X0162520Y0154419D02*
X0161400Y0154419D01*
X0161400Y0156018D02*
X0162619Y0156018D01*
X0163282Y0157616D02*
X0160756Y0157616D01*
X0159157Y0159215D02*
X0164882Y0159215D01*
X0164272Y0160813D02*
X0159715Y0160813D01*
X0161313Y0162412D02*
X0163051Y0162412D01*
X0162520Y0164010D02*
X0161400Y0164010D01*
X0161400Y0165609D02*
X0162520Y0165609D01*
X0163112Y0167207D02*
X0161165Y0167207D01*
X0159566Y0168806D02*
X0164420Y0168806D01*
X0164681Y0170405D02*
X0159306Y0170405D01*
X0160904Y0172003D02*
X0163220Y0172003D01*
X0162558Y0173602D02*
X0161400Y0173602D01*
X0161400Y0175200D02*
X0162520Y0175200D01*
X0162943Y0176799D02*
X0161400Y0176799D01*
X0159975Y0178397D02*
X0164011Y0178397D01*
X0158377Y0179996D02*
X0183839Y0179996D01*
X0183979Y0179856D02*
X0188021Y0179856D01*
X0190880Y0182714D01*
X0190880Y0186757D01*
X0188021Y0189616D01*
X0183979Y0189616D01*
X0181120Y0186757D01*
X0181120Y0182714D01*
X0183979Y0179856D01*
X0188161Y0179996D02*
X0193839Y0179996D01*
X0192240Y0181594D02*
X0189760Y0181594D01*
X0190880Y0183193D02*
X0191120Y0183193D01*
X0191120Y0184791D02*
X0190880Y0184791D01*
X0190880Y0186390D02*
X0191120Y0186390D01*
X0192351Y0187988D02*
X0189649Y0187988D01*
X0188088Y0189587D02*
X0188050Y0189587D01*
X0186489Y0191185D02*
X0185511Y0191185D01*
X0183950Y0189587D02*
X0183912Y0189587D01*
X0182351Y0187988D02*
X0150880Y0187988D01*
X0150880Y0187714D02*
X0148021Y0184856D01*
X0143979Y0184856D01*
X0141120Y0187714D01*
X0141120Y0191757D01*
X0143979Y0194616D01*
X0148021Y0194616D01*
X0150880Y0191757D01*
X0150880Y0187714D01*
X0150880Y0189587D02*
X0168088Y0189587D01*
X0166489Y0191185D02*
X0150880Y0191185D01*
X0149853Y0192784D02*
X0165300Y0192784D01*
X0165300Y0194382D02*
X0148255Y0194382D01*
X0143745Y0194382D02*
X0137972Y0194382D01*
X0136000Y0194382D02*
X0136000Y0194382D01*
X0136000Y0192784D02*
X0136000Y0192784D01*
X0136000Y0191185D02*
X0136000Y0191185D01*
X0136000Y0189587D02*
X0136000Y0189587D01*
X0136000Y0187988D02*
X0136000Y0187988D01*
X0136000Y0186390D02*
X0136000Y0186390D01*
X0133800Y0184791D02*
X0181120Y0184791D01*
X0181120Y0183193D02*
X0133800Y0183193D01*
X0128600Y0183193D02*
X0114000Y0183193D01*
X0114000Y0184791D02*
X0128600Y0184791D01*
X0128600Y0186390D02*
X0114000Y0186390D01*
X0114000Y0187988D02*
X0128600Y0187988D01*
X0128600Y0189587D02*
X0114000Y0189587D01*
X0115511Y0191185D02*
X0128600Y0191185D01*
X0127075Y0192784D02*
X0116700Y0192784D01*
X0116700Y0194382D02*
X0125476Y0194382D01*
X0123878Y0195981D02*
X0116700Y0195981D01*
X0116217Y0197579D02*
X0122279Y0197579D01*
X0120681Y0199178D02*
X0114619Y0199178D01*
X0114819Y0200776D02*
X0119082Y0200776D01*
X0117484Y0202375D02*
X0116417Y0202375D01*
X0120042Y0207170D02*
X0125839Y0207170D01*
X0125300Y0205572D02*
X0121641Y0205572D01*
X0123239Y0203973D02*
X0125300Y0203973D01*
X0124838Y0202375D02*
X0125808Y0202375D01*
X0126436Y0200776D02*
X0126898Y0200776D01*
X0128035Y0199178D02*
X0129523Y0199178D01*
X0129633Y0197579D02*
X0165783Y0197579D01*
X0165300Y0195981D02*
X0131232Y0195981D01*
X0132830Y0194382D02*
X0134028Y0194382D01*
X0139570Y0192784D02*
X0142147Y0192784D01*
X0141120Y0191185D02*
X0140680Y0191185D01*
X0140680Y0189587D02*
X0141120Y0189587D01*
X0141120Y0187988D02*
X0140680Y0187988D01*
X0139273Y0186390D02*
X0142445Y0186390D01*
X0149555Y0186390D02*
X0181120Y0186390D01*
X0178088Y0189587D02*
X0173912Y0189587D01*
X0175511Y0191185D02*
X0176489Y0191185D01*
X0167381Y0199178D02*
X0152477Y0199178D01*
X0149523Y0199178D02*
X0142477Y0199178D01*
X0139523Y0199178D02*
X0132477Y0199178D01*
X0135102Y0200776D02*
X0136898Y0200776D01*
X0145102Y0200776D02*
X0146898Y0200776D01*
X0155102Y0200776D02*
X0167181Y0200776D01*
X0165583Y0202375D02*
X0156192Y0202375D01*
X0156700Y0203973D02*
X0165500Y0203973D01*
X0165500Y0205572D02*
X0156700Y0205572D01*
X0156161Y0207170D02*
X0165657Y0207170D01*
X0167255Y0208769D02*
X0155028Y0208769D01*
X0146972Y0208769D02*
X0145028Y0208769D01*
X0136972Y0208769D02*
X0135028Y0208769D01*
X0126972Y0208769D02*
X0118444Y0208769D01*
X0106353Y0211966D02*
X0006000Y0211966D01*
X0006000Y0210367D02*
X0088571Y0210367D01*
X0086972Y0208769D02*
X0006000Y0208769D01*
X0006000Y0207170D02*
X0085374Y0207170D01*
X0085300Y0205572D02*
X0006000Y0205572D01*
X0006000Y0203973D02*
X0085300Y0203973D01*
X0085300Y0202375D02*
X0006000Y0202375D01*
X0006000Y0200776D02*
X0086898Y0200776D01*
X0085300Y0199178D02*
X0006000Y0199178D01*
X0006000Y0197579D02*
X0085300Y0197579D01*
X0085300Y0195981D02*
X0054154Y0195981D01*
X0053899Y0196236D02*
X0048101Y0196236D01*
X0044000Y0192135D01*
X0044000Y0186336D01*
X0048101Y0182236D01*
X0053899Y0182236D01*
X0058000Y0186336D01*
X0058000Y0192135D01*
X0053899Y0196236D01*
X0055753Y0194382D02*
X0085300Y0194382D01*
X0085300Y0192784D02*
X0057351Y0192784D01*
X0058000Y0191185D02*
X0085300Y0191185D01*
X0085920Y0189587D02*
X0058000Y0189587D01*
X0058000Y0187988D02*
X0098600Y0187988D01*
X0098600Y0186390D02*
X0058000Y0186390D01*
X0056455Y0184791D02*
X0098600Y0184791D01*
X0098600Y0183193D02*
X0054857Y0183193D01*
X0047143Y0183193D02*
X0006000Y0183193D01*
X0006000Y0184791D02*
X0045545Y0184791D01*
X0044000Y0186390D02*
X0006000Y0186390D01*
X0006000Y0187988D02*
X0044000Y0187988D01*
X0044000Y0189587D02*
X0006000Y0189587D01*
X0006000Y0191185D02*
X0044000Y0191185D01*
X0044649Y0192784D02*
X0006000Y0192784D01*
X0006000Y0194382D02*
X0046247Y0194382D01*
X0047846Y0195981D02*
X0006000Y0195981D01*
X0006000Y0181594D02*
X0098600Y0181594D01*
X0098600Y0179996D02*
X0006000Y0179996D01*
X0006000Y0178397D02*
X0098600Y0178397D01*
X0098600Y0176799D02*
X0006000Y0176799D01*
X0006000Y0175200D02*
X0098600Y0175200D01*
X0098600Y0173602D02*
X0006000Y0173602D01*
X0006000Y0172003D02*
X0098045Y0172003D01*
X0097046Y0170405D02*
X0006000Y0170405D01*
X0006000Y0168806D02*
X0096800Y0168806D01*
X0097153Y0167207D02*
X0006000Y0167207D01*
X0006000Y0165609D02*
X0095397Y0165609D01*
X0093798Y0164010D02*
X0006000Y0164010D01*
X0006000Y0162412D02*
X0092200Y0162412D01*
X0090601Y0160813D02*
X0006000Y0160813D01*
X0006000Y0159215D02*
X0089002Y0159215D01*
X0087404Y0157616D02*
X0006000Y0157616D01*
X0006000Y0156018D02*
X0085805Y0156018D01*
X0084207Y0154419D02*
X0006000Y0154419D01*
X0006000Y0152821D02*
X0082608Y0152821D01*
X0081010Y0151222D02*
X0006000Y0151222D01*
X0006000Y0149624D02*
X0079411Y0149624D01*
X0077813Y0148025D02*
X0006000Y0148025D01*
X0006000Y0146427D02*
X0076214Y0146427D01*
X0074616Y0144828D02*
X0006000Y0144828D01*
X0006000Y0143230D02*
X0073017Y0143230D01*
X0071419Y0141631D02*
X0006000Y0141631D01*
X0006000Y0140033D02*
X0069820Y0140033D01*
X0068222Y0138434D02*
X0006000Y0138434D01*
X0006000Y0136836D02*
X0047701Y0136836D01*
X0046102Y0135237D02*
X0006000Y0135237D01*
X0006000Y0133639D02*
X0044504Y0133639D01*
X0044000Y0132040D02*
X0006000Y0132040D01*
X0006000Y0130442D02*
X0044000Y0130442D01*
X0044000Y0128843D02*
X0006000Y0128843D01*
X0006000Y0127245D02*
X0044091Y0127245D01*
X0045690Y0125646D02*
X0006000Y0125646D01*
X0006000Y0124048D02*
X0047288Y0124048D01*
X0050638Y0120851D02*
X0006000Y0120851D01*
X0006000Y0122449D02*
X0052237Y0122449D01*
X0049040Y0119252D02*
X0024544Y0119252D01*
X0024229Y0119568D02*
X0025832Y0117964D01*
X0026700Y0115869D01*
X0026700Y0113602D01*
X0025832Y0111507D01*
X0024229Y0109903D01*
X0023536Y0109616D01*
X0023883Y0109440D01*
X0024583Y0108931D01*
X0025195Y0108319D01*
X0025704Y0107618D01*
X0026097Y0106847D01*
X0026365Y0106023D01*
X0026500Y0105168D01*
X0026500Y0104736D01*
X0021000Y0104736D01*
X0021000Y0104735D01*
X0021000Y0099236D01*
X0021000Y0104735D01*
X0021000Y0104735D01*
X0026500Y0104735D01*
X0026500Y0104303D01*
X0026365Y0103448D01*
X0026097Y0102624D01*
X0025704Y0101853D01*
X0025195Y0101153D01*
X0024583Y0100540D01*
X0023883Y0100031D01*
X0023111Y0099638D01*
X0022288Y0099371D01*
X0021433Y0099236D01*
X0021000Y0099236D01*
X0020567Y0099236D01*
X0019712Y0099371D01*
X0018889Y0099638D01*
X0018117Y0100031D01*
X0017417Y0100540D01*
X0016805Y0101153D01*
X0016296Y0101853D01*
X0015903Y0102624D01*
X0015635Y0103448D01*
X0015500Y0104303D01*
X0015500Y0104394D01*
X0014634Y0104036D01*
X0012366Y0104036D01*
X0010271Y0104903D01*
X0008668Y0106507D01*
X0007800Y0108602D01*
X0007800Y0110869D01*
X0008668Y0112964D01*
X0010271Y0114568D01*
X0012366Y0115436D01*
X0014634Y0115436D01*
X0015300Y0115160D01*
X0015300Y0115869D01*
X0016168Y0117964D01*
X0017771Y0119568D01*
X0019866Y0120436D01*
X0022134Y0120436D01*
X0024229Y0119568D01*
X0025961Y0117654D02*
X0047441Y0117654D01*
X0045843Y0116055D02*
X0026623Y0116055D01*
X0026700Y0114457D02*
X0044244Y0114457D01*
X0042646Y0112858D02*
X0026392Y0112858D01*
X0025585Y0111260D02*
X0038123Y0111260D01*
X0036524Y0109661D02*
X0023644Y0109661D01*
X0025381Y0108063D02*
X0036120Y0108063D01*
X0036120Y0106464D02*
X0026221Y0106464D01*
X0026500Y0104866D02*
X0036469Y0104866D01*
X0038067Y0103267D02*
X0026306Y0103267D01*
X0025570Y0101669D02*
X0078608Y0101669D01*
X0080206Y0103267D02*
X0073650Y0103267D01*
X0072939Y0102556D02*
X0075680Y0105297D01*
X0075680Y0107235D01*
X0071000Y0107235D01*
X0071000Y0102556D01*
X0072939Y0102556D01*
X0071000Y0102556D02*
X0071000Y0107235D01*
X0071000Y0107235D01*
X0071000Y0107236D01*
X0071000Y0111916D01*
X0072939Y0111916D01*
X0075680Y0109174D01*
X0075680Y0107236D01*
X0071000Y0107236D01*
X0071000Y0107236D01*
X0071000Y0111916D01*
X0069061Y0111916D01*
X0066320Y0109174D01*
X0066320Y0107236D01*
X0071000Y0107236D01*
X0071000Y0107235D01*
X0066320Y0107235D01*
X0066320Y0105297D01*
X0069061Y0102556D01*
X0071000Y0102556D01*
X0071000Y0103267D02*
X0071000Y0103267D01*
X0071000Y0104866D02*
X0071000Y0104866D01*
X0071000Y0106464D02*
X0071000Y0106464D01*
X0071000Y0108063D02*
X0071000Y0108063D01*
X0071000Y0109661D02*
X0071000Y0109661D01*
X0071000Y0111260D02*
X0071000Y0111260D01*
X0073594Y0111260D02*
X0088199Y0111260D01*
X0089797Y0112858D02*
X0050000Y0112858D01*
X0051598Y0114457D02*
X0091396Y0114457D01*
X0092994Y0116055D02*
X0053197Y0116055D01*
X0054795Y0117654D02*
X0094593Y0117654D01*
X0096191Y0119252D02*
X0056394Y0119252D01*
X0057992Y0120851D02*
X0097790Y0120851D01*
X0099388Y0122449D02*
X0059591Y0122449D01*
X0061189Y0124048D02*
X0100987Y0124048D01*
X0101000Y0125646D02*
X0101000Y0125646D01*
X0101000Y0127245D02*
X0101000Y0127245D01*
X0101000Y0128843D02*
X0101000Y0128843D01*
X0101000Y0130442D02*
X0101000Y0130442D01*
X0101000Y0132040D02*
X0101000Y0132040D01*
X0101000Y0133639D02*
X0101000Y0133639D01*
X0103715Y0133639D02*
X0108002Y0133639D01*
X0106403Y0132040D02*
X0105314Y0132040D01*
X0105680Y0130442D02*
X0106120Y0130442D01*
X0105782Y0128843D02*
X0105680Y0128843D01*
X0098471Y0125646D02*
X0062788Y0125646D01*
X0064386Y0127245D02*
X0096872Y0127245D01*
X0096320Y0128843D02*
X0065985Y0128843D01*
X0067583Y0130442D02*
X0096320Y0130442D01*
X0096686Y0132040D02*
X0069182Y0132040D01*
X0070780Y0133639D02*
X0098285Y0133639D01*
X0103786Y0141631D02*
X0078773Y0141631D01*
X0077174Y0140033D02*
X0105924Y0140033D01*
X0102950Y0143230D02*
X0080371Y0143230D01*
X0081970Y0144828D02*
X0110900Y0144828D01*
X0111100Y0144828D02*
X0120800Y0144828D01*
X0120800Y0143230D02*
X0119050Y0143230D01*
X0118214Y0141631D02*
X0121750Y0141631D01*
X0123349Y0140033D02*
X0116076Y0140033D01*
X0111100Y0140033D02*
X0110900Y0140033D01*
X0110900Y0141631D02*
X0111100Y0141631D01*
X0111100Y0143230D02*
X0110900Y0143230D01*
X0103922Y0148025D02*
X0085167Y0148025D01*
X0083568Y0146427D02*
X0103010Y0146427D01*
X0106408Y0149624D02*
X0086765Y0149624D01*
X0088364Y0151222D02*
X0103863Y0151222D01*
X0102881Y0152821D02*
X0089962Y0152821D01*
X0091561Y0154419D02*
X0102520Y0154419D01*
X0102619Y0156018D02*
X0093159Y0156018D01*
X0094758Y0157616D02*
X0103282Y0157616D01*
X0104882Y0159215D02*
X0096356Y0159215D01*
X0097955Y0160813D02*
X0104272Y0160813D01*
X0117118Y0159215D02*
X0122843Y0159215D01*
X0122285Y0160813D02*
X0117728Y0160813D01*
X0118949Y0162412D02*
X0120687Y0162412D01*
X0120600Y0164010D02*
X0119480Y0164010D01*
X0119480Y0165609D02*
X0120600Y0165609D01*
X0120835Y0167207D02*
X0118888Y0167207D01*
X0117580Y0168806D02*
X0122434Y0168806D01*
X0122694Y0170405D02*
X0117319Y0170405D01*
X0118780Y0172003D02*
X0121096Y0172003D01*
X0120600Y0173602D02*
X0119442Y0173602D01*
X0119480Y0175200D02*
X0120600Y0175200D01*
X0120600Y0176799D02*
X0119057Y0176799D01*
X0117989Y0178397D02*
X0122025Y0178397D01*
X0123623Y0179996D02*
X0114000Y0179996D01*
X0114000Y0181594D02*
X0128600Y0181594D01*
X0128600Y0179996D02*
X0128377Y0179996D01*
X0121244Y0157616D02*
X0118718Y0157616D01*
X0119381Y0156018D02*
X0120600Y0156018D01*
X0120600Y0154419D02*
X0119480Y0154419D01*
X0119119Y0152821D02*
X0120600Y0152821D01*
X0121876Y0151222D02*
X0118137Y0151222D01*
X0115592Y0149624D02*
X0123475Y0149624D01*
X0121936Y0148025D02*
X0118078Y0148025D01*
X0118990Y0146427D02*
X0120800Y0146427D01*
X0126000Y0143230D02*
X0126000Y0143230D01*
X0126000Y0141631D02*
X0126000Y0141631D01*
X0126000Y0140033D02*
X0126000Y0140033D01*
X0128651Y0140033D02*
X0149226Y0140033D01*
X0147719Y0138434D02*
X0075576Y0138434D01*
X0073977Y0136836D02*
X0145575Y0136836D01*
X0143976Y0135237D02*
X0072379Y0135237D01*
X0066623Y0136836D02*
X0054299Y0136836D01*
X0055898Y0135237D02*
X0065025Y0135237D01*
X0063426Y0133639D02*
X0057496Y0133639D01*
X0058000Y0132040D02*
X0061828Y0132040D01*
X0060229Y0130442D02*
X0058000Y0130442D01*
X0058000Y0128843D02*
X0058631Y0128843D01*
X0068406Y0111260D02*
X0048401Y0111260D01*
X0046802Y0109661D02*
X0066807Y0109661D01*
X0066320Y0108063D02*
X0045880Y0108063D01*
X0045880Y0106464D02*
X0066320Y0106464D01*
X0066751Y0104866D02*
X0045531Y0104866D01*
X0043933Y0103267D02*
X0068350Y0103267D01*
X0075249Y0104866D02*
X0081805Y0104866D01*
X0083403Y0106464D02*
X0075680Y0106464D01*
X0075680Y0108063D02*
X0085002Y0108063D01*
X0086600Y0109661D02*
X0075193Y0109661D01*
X0077009Y0100070D02*
X0023936Y0100070D01*
X0021000Y0100070D02*
X0021000Y0100070D01*
X0021000Y0101669D02*
X0021000Y0101669D01*
X0021000Y0103267D02*
X0021000Y0103267D01*
X0018064Y0100070D02*
X0006000Y0100070D01*
X0006000Y0098472D02*
X0075411Y0098472D01*
X0073812Y0096873D02*
X0006000Y0096873D01*
X0006000Y0095274D02*
X0072213Y0095274D01*
X0070615Y0093676D02*
X0027710Y0093676D01*
X0027598Y0085683D02*
X0231857Y0085683D01*
X0230258Y0084085D02*
X0213552Y0084085D01*
X0213021Y0084616D02*
X0208979Y0084616D01*
X0206120Y0081757D01*
X0206120Y0077714D01*
X0208979Y0074856D01*
X0213021Y0074856D01*
X0215880Y0077714D01*
X0215880Y0081757D01*
X0213021Y0084616D01*
X0215150Y0082486D02*
X0228660Y0082486D01*
X0227061Y0080888D02*
X0215880Y0080888D01*
X0215880Y0079289D02*
X0225463Y0079289D01*
X0223864Y0077691D02*
X0215857Y0077691D01*
X0214258Y0076092D02*
X0222266Y0076092D01*
X0220667Y0074494D02*
X0186372Y0074494D01*
X0186764Y0075440D02*
X0185555Y0072523D01*
X0183323Y0070290D01*
X0180406Y0069082D01*
X0165374Y0069082D01*
X0162457Y0070290D01*
X0160224Y0072523D01*
X0159016Y0075440D01*
X0159016Y0078598D01*
X0160224Y0081515D01*
X0162457Y0083748D01*
X0165374Y0084956D01*
X0180406Y0084956D01*
X0183323Y0083748D01*
X0185555Y0081515D01*
X0186764Y0078598D01*
X0186764Y0075440D01*
X0186764Y0076092D02*
X0198025Y0076092D01*
X0199061Y0075056D02*
X0196320Y0077797D01*
X0196320Y0079735D01*
X0201000Y0079735D01*
X0201000Y0075056D01*
X0202939Y0075056D01*
X0205680Y0077797D01*
X0205680Y0079735D01*
X0201000Y0079735D01*
X0201000Y0079735D01*
X0201000Y0075056D01*
X0199061Y0075056D01*
X0201000Y0076092D02*
X0201000Y0076092D01*
X0201000Y0077691D02*
X0201000Y0077691D01*
X0201000Y0079289D02*
X0201000Y0079289D01*
X0201000Y0079735D02*
X0201000Y0079736D01*
X0201000Y0084416D01*
X0202939Y0084416D01*
X0205680Y0081674D01*
X0205680Y0079736D01*
X0201000Y0079736D01*
X0201000Y0079736D01*
X0201000Y0084416D01*
X0199061Y0084416D01*
X0196320Y0081674D01*
X0196320Y0079736D01*
X0201000Y0079736D01*
X0201000Y0079735D01*
X0201000Y0080888D02*
X0201000Y0080888D01*
X0201000Y0082486D02*
X0201000Y0082486D01*
X0201000Y0084085D02*
X0201000Y0084085D01*
X0203269Y0084085D02*
X0208448Y0084085D01*
X0206850Y0082486D02*
X0204868Y0082486D01*
X0205680Y0080888D02*
X0206120Y0080888D01*
X0206120Y0079289D02*
X0205680Y0079289D01*
X0205574Y0077691D02*
X0206143Y0077691D01*
X0207742Y0076092D02*
X0203975Y0076092D01*
X0196426Y0077691D02*
X0186764Y0077691D01*
X0186477Y0079289D02*
X0196320Y0079289D01*
X0196320Y0080888D02*
X0185815Y0080888D01*
X0184584Y0082486D02*
X0197132Y0082486D01*
X0198731Y0084085D02*
X0182509Y0084085D01*
X0185710Y0072895D02*
X0219069Y0072895D01*
X0217470Y0071297D02*
X0184329Y0071297D01*
X0181893Y0069698D02*
X0215872Y0069698D01*
X0214273Y0068100D02*
X0029234Y0068100D01*
X0029480Y0069698D02*
X0045776Y0069698D01*
X0044347Y0070290D02*
X0047264Y0069082D01*
X0062295Y0069082D01*
X0065212Y0070290D01*
X0067445Y0072523D01*
X0068654Y0075440D01*
X0068654Y0078598D01*
X0067445Y0081515D01*
X0065212Y0083748D01*
X0062295Y0084956D01*
X0047264Y0084956D01*
X0044347Y0083748D01*
X0042114Y0081515D01*
X0040906Y0078598D01*
X0040906Y0075440D01*
X0042114Y0072523D01*
X0044347Y0070290D01*
X0043340Y0071297D02*
X0029265Y0071297D01*
X0028491Y0072895D02*
X0041960Y0072895D01*
X0041298Y0074494D02*
X0026445Y0074494D01*
X0027724Y0076092D02*
X0040906Y0076092D01*
X0040906Y0077691D02*
X0028855Y0077691D01*
X0029272Y0079289D02*
X0041192Y0079289D01*
X0041854Y0080888D02*
X0029160Y0080888D01*
X0028471Y0082486D02*
X0043085Y0082486D01*
X0045161Y0084085D02*
X0026805Y0084085D01*
X0015195Y0084085D02*
X0006000Y0084085D01*
X0006000Y0085683D02*
X0014402Y0085683D01*
X0013105Y0087282D02*
X0006000Y0087282D01*
X0006000Y0088880D02*
X0012520Y0088880D01*
X0012520Y0090479D02*
X0006000Y0090479D01*
X0006000Y0092077D02*
X0013058Y0092077D01*
X0014290Y0093676D02*
X0006000Y0093676D01*
X0006000Y0101669D02*
X0016430Y0101669D01*
X0015694Y0103267D02*
X0006000Y0103267D01*
X0006000Y0104866D02*
X0010362Y0104866D01*
X0008710Y0106464D02*
X0006000Y0106464D01*
X0006000Y0108063D02*
X0008023Y0108063D01*
X0007800Y0109661D02*
X0006000Y0109661D01*
X0006000Y0111260D02*
X0007962Y0111260D01*
X0008624Y0112858D02*
X0006000Y0112858D01*
X0006000Y0114457D02*
X0010160Y0114457D01*
X0006000Y0116055D02*
X0015377Y0116055D01*
X0016039Y0117654D02*
X0006000Y0117654D01*
X0006000Y0119252D02*
X0017456Y0119252D01*
X0013529Y0082486D02*
X0006000Y0082486D01*
X0006000Y0080888D02*
X0012840Y0080888D01*
X0012728Y0079289D02*
X0006000Y0079289D01*
X0006000Y0077691D02*
X0013145Y0077691D01*
X0014276Y0076092D02*
X0006000Y0076092D01*
X0006000Y0074494D02*
X0015555Y0074494D01*
X0013509Y0072895D02*
X0006000Y0072895D01*
X0006000Y0071297D02*
X0012735Y0071297D01*
X0012520Y0069698D02*
X0006000Y0069698D01*
X0006000Y0068100D02*
X0012766Y0068100D01*
X0013584Y0066501D02*
X0006000Y0066501D01*
X0006000Y0064903D02*
X0015735Y0064903D01*
X0013918Y0063304D02*
X0006000Y0063304D01*
X0006000Y0061706D02*
X0012904Y0061706D01*
X0012520Y0060107D02*
X0006000Y0060107D01*
X0006000Y0058509D02*
X0012596Y0058509D01*
X0013259Y0056910D02*
X0006000Y0056910D01*
X0006000Y0055312D02*
X0014773Y0055312D01*
X0014327Y0053713D02*
X0006000Y0053713D01*
X0006000Y0052115D02*
X0013074Y0052115D01*
X0012520Y0050516D02*
X0006000Y0050516D01*
X0006000Y0048918D02*
X0012520Y0048918D01*
X0013089Y0047319D02*
X0006000Y0047319D01*
X0006000Y0045721D02*
X0014364Y0045721D01*
X0014736Y0044122D02*
X0006000Y0044122D01*
X0006000Y0042524D02*
X0013243Y0042524D01*
X0012581Y0040925D02*
X0006000Y0040925D01*
X0006000Y0039327D02*
X0012520Y0039327D01*
X0012920Y0037728D02*
X0006000Y0037728D01*
X0006000Y0036130D02*
X0013955Y0036130D01*
X0027264Y0044122D02*
X0043239Y0044122D01*
X0043013Y0044348D02*
X0043730Y0043630D01*
X0044535Y0043013D01*
X0045413Y0042506D01*
X0046350Y0042118D01*
X0047330Y0041855D01*
X0048335Y0041723D01*
X0053980Y0041723D01*
X0053980Y0048660D01*
X0055580Y0048660D01*
X0055580Y0050260D01*
X0068415Y0050260D01*
X0068321Y0050973D01*
X0068059Y0051952D01*
X0067671Y0052889D01*
X0067163Y0053768D01*
X0066546Y0054572D01*
X0065829Y0055289D01*
X0065024Y0055907D01*
X0064146Y0056414D01*
X0063209Y0056802D01*
X0062229Y0057065D01*
X0061224Y0057197D01*
X0055580Y0057197D01*
X0055580Y0050260D01*
X0053980Y0050260D01*
X0053980Y0057197D01*
X0048335Y0057197D01*
X0047330Y0057065D01*
X0046350Y0056802D01*
X0045413Y0056414D01*
X0044535Y0055907D01*
X0043730Y0055289D01*
X0043013Y0054572D01*
X0042396Y0053768D01*
X0041889Y0052889D01*
X0041500Y0051952D01*
X0041238Y0050973D01*
X0041144Y0050260D01*
X0053979Y0050260D01*
X0053979Y0048660D01*
X0041144Y0048660D01*
X0041238Y0047947D01*
X0041500Y0046968D01*
X0041889Y0046031D01*
X0042396Y0045152D01*
X0043013Y0044348D01*
X0042067Y0045721D02*
X0027636Y0045721D01*
X0028911Y0047319D02*
X0041406Y0047319D01*
X0041178Y0050516D02*
X0029480Y0050516D01*
X0029480Y0048918D02*
X0053979Y0048918D01*
X0053980Y0050516D02*
X0055580Y0050516D01*
X0055580Y0048918D02*
X0172090Y0048918D01*
X0172090Y0048660D02*
X0172090Y0050260D01*
X0172090Y0057197D01*
X0166446Y0057197D01*
X0165440Y0057065D01*
X0164460Y0056802D01*
X0163523Y0056414D01*
X0162645Y0055907D01*
X0161840Y0055289D01*
X0161123Y0054572D01*
X0160506Y0053768D01*
X0159999Y0052889D01*
X0159611Y0051952D01*
X0159348Y0050973D01*
X0159254Y0050260D01*
X0172090Y0050260D01*
X0173690Y0050260D01*
X0186525Y0050260D01*
X0186431Y0050973D01*
X0186169Y0051952D01*
X0185781Y0052889D01*
X0185274Y0053768D01*
X0184656Y0054572D01*
X0183939Y0055289D01*
X0183134Y0055907D01*
X0182256Y0056414D01*
X0181319Y0056802D01*
X0180339Y0057065D01*
X0179334Y0057197D01*
X0173690Y0057197D01*
X0173690Y0050260D01*
X0173690Y0048660D01*
X0186525Y0048660D01*
X0186431Y0047947D01*
X0186169Y0046968D01*
X0185781Y0046031D01*
X0185274Y0045152D01*
X0184656Y0044348D01*
X0183939Y0043630D01*
X0183134Y0043013D01*
X0182256Y0042506D01*
X0181319Y0042118D01*
X0180339Y0041855D01*
X0179334Y0041723D01*
X0173690Y0041723D01*
X0173690Y0048660D01*
X0172090Y0048660D01*
X0172090Y0041723D01*
X0166446Y0041723D01*
X0165440Y0041855D01*
X0164460Y0042118D01*
X0163523Y0042506D01*
X0162645Y0043013D01*
X0161840Y0043630D01*
X0161123Y0044348D01*
X0160506Y0045152D01*
X0159999Y0046031D01*
X0159611Y0046968D01*
X0159348Y0047947D01*
X0159254Y0048660D01*
X0172090Y0048660D01*
X0172090Y0047319D02*
X0173690Y0047319D01*
X0173690Y0045721D02*
X0172090Y0045721D01*
X0172090Y0044122D02*
X0173690Y0044122D01*
X0173690Y0042524D02*
X0172090Y0042524D01*
X0173690Y0048918D02*
X0296121Y0048918D01*
X0296121Y0050516D02*
X0186491Y0050516D01*
X0186102Y0052115D02*
X0296121Y0052115D01*
X0296121Y0053713D02*
X0291985Y0053713D01*
X0292296Y0053814D02*
X0293116Y0054232D01*
X0293861Y0054773D01*
X0294512Y0055424D01*
X0295053Y0056169D01*
X0295471Y0056990D01*
X0295756Y0057866D01*
X0295900Y0058775D01*
X0295900Y0058910D01*
X0286325Y0058910D01*
X0286325Y0053386D01*
X0290510Y0053386D01*
X0291420Y0053530D01*
X0292296Y0053814D01*
X0294399Y0055312D02*
X0296121Y0055312D01*
X0296121Y0056910D02*
X0295431Y0056910D01*
X0295858Y0058509D02*
X0296121Y0058509D01*
X0295900Y0059561D02*
X0295900Y0059696D01*
X0295756Y0060605D01*
X0295471Y0061481D01*
X0295053Y0062302D01*
X0294512Y0063047D01*
X0293861Y0063698D01*
X0293116Y0064239D01*
X0292339Y0064635D01*
X0293477Y0065107D01*
X0295179Y0066808D01*
X0296100Y0069032D01*
X0296100Y0071439D01*
X0295179Y0073663D01*
X0293477Y0075364D01*
X0291253Y0076286D01*
X0280747Y0076286D01*
X0278523Y0075364D01*
X0276821Y0073663D01*
X0275900Y0071439D01*
X0275900Y0069032D01*
X0276821Y0066808D01*
X0278523Y0065107D01*
X0279661Y0064635D01*
X0278884Y0064239D01*
X0278139Y0063698D01*
X0277488Y0063047D01*
X0276947Y0062302D01*
X0276529Y0061481D01*
X0276244Y0060605D01*
X0276100Y0059696D01*
X0276100Y0059561D01*
X0285675Y0059561D01*
X0285675Y0058910D01*
X0286325Y0058910D01*
X0286325Y0059561D01*
X0295900Y0059561D01*
X0295835Y0060107D02*
X0296121Y0060107D01*
X0296121Y0061706D02*
X0295357Y0061706D01*
X0296121Y0063304D02*
X0294254Y0063304D01*
X0292985Y0064903D02*
X0296121Y0064903D01*
X0296121Y0066501D02*
X0294872Y0066501D01*
X0295714Y0068100D02*
X0296121Y0068100D01*
X0296100Y0069698D02*
X0296121Y0069698D01*
X0296100Y0071297D02*
X0296121Y0071297D01*
X0296121Y0072895D02*
X0295497Y0072895D01*
X0296121Y0074494D02*
X0294348Y0074494D01*
X0296121Y0076092D02*
X0291720Y0076092D01*
X0293660Y0079289D02*
X0296121Y0079289D01*
X0296121Y0077691D02*
X0234046Y0077691D01*
X0232448Y0076092D02*
X0280280Y0076092D01*
X0277652Y0074494D02*
X0230849Y0074494D01*
X0229251Y0072895D02*
X0276503Y0072895D01*
X0275900Y0071297D02*
X0227652Y0071297D01*
X0226054Y0069698D02*
X0275900Y0069698D01*
X0276286Y0068100D02*
X0224455Y0068100D01*
X0222857Y0066501D02*
X0277128Y0066501D01*
X0279015Y0064903D02*
X0221258Y0064903D01*
X0219660Y0063304D02*
X0277746Y0063304D01*
X0276643Y0061706D02*
X0218061Y0061706D01*
X0216463Y0060107D02*
X0276165Y0060107D01*
X0276100Y0058910D02*
X0276100Y0058775D01*
X0276244Y0057866D01*
X0276529Y0056990D01*
X0276947Y0056169D01*
X0277488Y0055424D01*
X0278139Y0054773D01*
X0278884Y0054232D01*
X0279704Y0053814D01*
X0280580Y0053530D01*
X0281490Y0053386D01*
X0285675Y0053386D01*
X0285675Y0058910D01*
X0276100Y0058910D01*
X0276142Y0058509D02*
X0215880Y0058509D01*
X0215076Y0056910D02*
X0276569Y0056910D01*
X0277601Y0055312D02*
X0213478Y0055312D01*
X0208522Y0055312D02*
X0203195Y0055312D01*
X0202939Y0055056D02*
X0205680Y0057797D01*
X0205680Y0059735D01*
X0201000Y0059735D01*
X0201000Y0055056D01*
X0202939Y0055056D01*
X0201000Y0055056D02*
X0201000Y0059735D01*
X0201000Y0059735D01*
X0201000Y0059736D01*
X0201000Y0064416D01*
X0202939Y0064416D01*
X0205680Y0061674D01*
X0205680Y0059736D01*
X0201000Y0059736D01*
X0201000Y0059736D01*
X0201000Y0064416D01*
X0199061Y0064416D01*
X0196320Y0061674D01*
X0196320Y0059736D01*
X0201000Y0059736D01*
X0201000Y0059735D01*
X0196320Y0059735D01*
X0196320Y0057797D01*
X0199061Y0055056D01*
X0201000Y0055056D01*
X0201000Y0055312D02*
X0201000Y0055312D01*
X0201000Y0056910D02*
X0201000Y0056910D01*
X0201000Y0058509D02*
X0201000Y0058509D01*
X0201000Y0060107D02*
X0201000Y0060107D01*
X0201000Y0061706D02*
X0201000Y0061706D01*
X0201000Y0063304D02*
X0201000Y0063304D01*
X0204050Y0063304D02*
X0207667Y0063304D01*
X0206120Y0061706D02*
X0205648Y0061706D01*
X0205680Y0060107D02*
X0206120Y0060107D01*
X0206120Y0058509D02*
X0205680Y0058509D01*
X0204793Y0056910D02*
X0206924Y0056910D01*
X0198805Y0055312D02*
X0183910Y0055312D01*
X0185305Y0053713D02*
X0280015Y0053713D01*
X0285675Y0053713D02*
X0286325Y0053713D01*
X0286325Y0055312D02*
X0285675Y0055312D01*
X0285675Y0056910D02*
X0286325Y0056910D01*
X0286325Y0058509D02*
X0285675Y0058509D01*
X0296121Y0047319D02*
X0212185Y0047319D01*
X0212024Y0047386D02*
X0209976Y0047386D01*
X0208083Y0046601D01*
X0206634Y0045153D01*
X0205950Y0043501D01*
X0205950Y0044286D01*
X0203050Y0047186D01*
X0201000Y0047185D01*
X0201000Y0042236D01*
X0201000Y0047186D01*
X0198950Y0047186D01*
X0196050Y0044286D01*
X0196050Y0042236D01*
X0201000Y0042236D01*
X0201000Y0042236D01*
X0201000Y0042235D01*
X0201000Y0037286D01*
X0203050Y0037286D01*
X0205950Y0040185D01*
X0205950Y0040970D01*
X0206634Y0039318D01*
X0208083Y0037870D01*
X0209976Y0037086D01*
X0212024Y0037086D01*
X0213917Y0037870D01*
X0215366Y0039318D01*
X0216120Y0041139D01*
X0216120Y0037714D01*
X0218979Y0034856D01*
X0223021Y0034856D01*
X0225880Y0037714D01*
X0225880Y0041757D01*
X0223021Y0044616D01*
X0218979Y0044616D01*
X0216150Y0041787D01*
X0216150Y0043260D01*
X0215366Y0045153D01*
X0213917Y0046601D01*
X0212024Y0047386D01*
X0209815Y0047319D02*
X0186263Y0047319D01*
X0185602Y0045721D02*
X0197485Y0045721D01*
X0196050Y0044122D02*
X0184431Y0044122D01*
X0182287Y0042524D02*
X0196050Y0042524D01*
X0196050Y0042235D02*
X0196050Y0040185D01*
X0198950Y0037286D01*
X0201000Y0037286D01*
X0201000Y0042235D01*
X0201000Y0042235D01*
X0196050Y0042235D01*
X0196050Y0040925D02*
X0029419Y0040925D01*
X0029480Y0039327D02*
X0196909Y0039327D01*
X0198507Y0037728D02*
X0029080Y0037728D01*
X0028045Y0036130D02*
X0217705Y0036130D01*
X0216120Y0037728D02*
X0213576Y0037728D01*
X0215369Y0039327D02*
X0216120Y0039327D01*
X0216120Y0040925D02*
X0216031Y0040925D01*
X0216150Y0042524D02*
X0216887Y0042524D01*
X0215793Y0044122D02*
X0218485Y0044122D01*
X0214798Y0045721D02*
X0296121Y0045721D01*
X0296121Y0044122D02*
X0273826Y0044122D01*
X0275424Y0042524D02*
X0296121Y0042524D01*
X0296121Y0040925D02*
X0276100Y0040925D01*
X0276100Y0039327D02*
X0296121Y0039327D01*
X0296121Y0037728D02*
X0276100Y0037728D01*
X0274607Y0036130D02*
X0296121Y0036130D01*
X0271000Y0036130D02*
X0271000Y0036130D01*
X0271000Y0037728D02*
X0271000Y0037728D01*
X0271000Y0039327D02*
X0271000Y0039327D01*
X0271000Y0040925D02*
X0271000Y0040925D01*
X0271000Y0042524D02*
X0271000Y0042524D01*
X0271000Y0044122D02*
X0271000Y0044122D01*
X0268174Y0044122D02*
X0264109Y0044122D01*
X0265707Y0042524D02*
X0266576Y0042524D01*
X0267393Y0036130D02*
X0264889Y0036130D01*
X0257111Y0036130D02*
X0254295Y0036130D01*
X0247705Y0036130D02*
X0224295Y0036130D01*
X0225880Y0037728D02*
X0246120Y0037728D01*
X0246120Y0039327D02*
X0225880Y0039327D01*
X0225880Y0040925D02*
X0246120Y0040925D01*
X0246887Y0042524D02*
X0225113Y0042524D01*
X0223515Y0044122D02*
X0248485Y0044122D01*
X0253515Y0044122D02*
X0257891Y0044122D01*
X0256293Y0042524D02*
X0255113Y0042524D01*
X0212675Y0066501D02*
X0028416Y0066501D01*
X0026265Y0064903D02*
X0211076Y0064903D01*
X0197950Y0063304D02*
X0028082Y0063304D01*
X0029096Y0061706D02*
X0196352Y0061706D01*
X0196320Y0060107D02*
X0029480Y0060107D01*
X0029404Y0058509D02*
X0196320Y0058509D01*
X0197207Y0056910D02*
X0180915Y0056910D01*
X0173690Y0056910D02*
X0172090Y0056910D01*
X0172090Y0055312D02*
X0173690Y0055312D01*
X0173690Y0053713D02*
X0172090Y0053713D01*
X0172090Y0052115D02*
X0173690Y0052115D01*
X0173690Y0050516D02*
X0172090Y0050516D01*
X0164864Y0056910D02*
X0062805Y0056910D01*
X0065800Y0055312D02*
X0161870Y0055312D01*
X0160474Y0053713D02*
X0067195Y0053713D01*
X0067991Y0052115D02*
X0159678Y0052115D01*
X0159288Y0050516D02*
X0068381Y0050516D01*
X0068415Y0048660D02*
X0055580Y0048660D01*
X0055580Y0041723D01*
X0061224Y0041723D01*
X0062229Y0041855D01*
X0063209Y0042118D01*
X0064146Y0042506D01*
X0065024Y0043013D01*
X0065829Y0043630D01*
X0066546Y0044348D01*
X0067163Y0045152D01*
X0067671Y0046031D01*
X0068059Y0046968D01*
X0068321Y0047947D01*
X0068415Y0048660D01*
X0068153Y0047319D02*
X0159516Y0047319D01*
X0160178Y0045721D02*
X0067492Y0045721D01*
X0066321Y0044122D02*
X0161349Y0044122D01*
X0163493Y0042524D02*
X0064176Y0042524D01*
X0055580Y0042524D02*
X0053980Y0042524D01*
X0053980Y0044122D02*
X0055580Y0044122D01*
X0055580Y0045721D02*
X0053980Y0045721D01*
X0053980Y0047319D02*
X0055580Y0047319D01*
X0055580Y0052115D02*
X0053980Y0052115D01*
X0053980Y0053713D02*
X0055580Y0053713D01*
X0055580Y0055312D02*
X0053980Y0055312D01*
X0053980Y0056910D02*
X0055580Y0056910D01*
X0046754Y0056910D02*
X0028741Y0056910D01*
X0027227Y0055312D02*
X0043759Y0055312D01*
X0042364Y0053713D02*
X0027673Y0053713D01*
X0028926Y0052115D02*
X0041568Y0052115D01*
X0045383Y0042524D02*
X0028757Y0042524D01*
X0063783Y0069698D02*
X0163886Y0069698D01*
X0161450Y0071297D02*
X0066219Y0071297D01*
X0067599Y0072895D02*
X0160070Y0072895D01*
X0159408Y0074494D02*
X0068262Y0074494D01*
X0068654Y0076092D02*
X0159016Y0076092D01*
X0159016Y0077691D02*
X0068654Y0077691D01*
X0068367Y0079289D02*
X0159302Y0079289D01*
X0159964Y0080888D02*
X0067705Y0080888D01*
X0066474Y0082486D02*
X0161196Y0082486D01*
X0163271Y0084085D02*
X0064398Y0084085D01*
X0073272Y0087282D02*
X0233455Y0087282D01*
X0235054Y0088880D02*
X0074870Y0088880D01*
X0076469Y0090479D02*
X0236652Y0090479D01*
X0238251Y0092077D02*
X0078067Y0092077D01*
X0079666Y0093676D02*
X0197559Y0093676D01*
X0198950Y0092286D02*
X0201000Y0092286D01*
X0201000Y0097235D01*
X0201000Y0097235D01*
X0196050Y0097235D01*
X0196050Y0095185D01*
X0198950Y0092286D01*
X0201000Y0093676D02*
X0201000Y0093676D01*
X0201000Y0095274D02*
X0201000Y0095274D01*
X0201000Y0096873D02*
X0201000Y0096873D01*
X0201000Y0098472D02*
X0201000Y0098472D01*
X0201000Y0100070D02*
X0201000Y0100070D01*
X0201000Y0101669D02*
X0201000Y0101669D01*
X0203567Y0101669D02*
X0208245Y0101669D01*
X0206600Y0100070D02*
X0205166Y0100070D01*
X0205950Y0095274D02*
X0206238Y0095274D01*
X0207276Y0093676D02*
X0204441Y0093676D01*
X0196050Y0095274D02*
X0183608Y0095274D01*
X0186357Y0096873D02*
X0196050Y0096873D01*
X0196050Y0098472D02*
X0187482Y0098472D01*
X0188000Y0100070D02*
X0196834Y0100070D01*
X0198433Y0101669D02*
X0188000Y0101669D01*
X0173992Y0095274D02*
X0158008Y0095274D01*
X0157914Y0095236D02*
X0159972Y0096088D01*
X0161547Y0097663D01*
X0162400Y0099722D01*
X0162400Y0101949D01*
X0161547Y0104008D01*
X0159972Y0105583D01*
X0157914Y0106436D01*
X0148486Y0106436D01*
X0146428Y0105583D01*
X0144853Y0104008D01*
X0144000Y0101949D01*
X0144000Y0099722D01*
X0144853Y0097663D01*
X0146428Y0096088D01*
X0148486Y0095236D01*
X0157914Y0095236D01*
X0160757Y0096873D02*
X0171243Y0096873D01*
X0170118Y0098472D02*
X0161882Y0098472D01*
X0162400Y0100070D02*
X0169600Y0100070D01*
X0169600Y0101669D02*
X0162400Y0101669D01*
X0161854Y0103267D02*
X0170146Y0103267D01*
X0171310Y0104866D02*
X0160690Y0104866D01*
X0158065Y0113368D02*
X0157225Y0113236D01*
X0153400Y0113236D01*
X0153400Y0118435D01*
X0153000Y0118435D01*
X0153000Y0113236D01*
X0149175Y0113236D01*
X0148335Y0113368D01*
X0147527Y0113631D01*
X0146770Y0114017D01*
X0146082Y0114517D01*
X0145481Y0115118D01*
X0144982Y0115805D01*
X0144596Y0116563D01*
X0144333Y0117371D01*
X0144200Y0118211D01*
X0144200Y0118435D01*
X0153000Y0118435D01*
X0153000Y0118836D01*
X0153000Y0124036D01*
X0149175Y0124036D01*
X0148335Y0123903D01*
X0147527Y0123640D01*
X0146770Y0123254D01*
X0146082Y0122754D01*
X0145481Y0122153D01*
X0144982Y0121466D01*
X0144596Y0120708D01*
X0144333Y0119900D01*
X0144200Y0119061D01*
X0144200Y0118836D01*
X0153000Y0118836D01*
X0153400Y0118836D01*
X0153400Y0124036D01*
X0157225Y0124036D01*
X0158065Y0123903D01*
X0158873Y0123640D01*
X0159630Y0123254D01*
X0160318Y0122754D01*
X0160919Y0122153D01*
X0161418Y0121466D01*
X0161804Y0120708D01*
X0162067Y0119900D01*
X0162200Y0119061D01*
X0162200Y0118836D01*
X0153400Y0118836D01*
X0153400Y0118435D01*
X0162200Y0118435D01*
X0162200Y0118211D01*
X0162067Y0117371D01*
X0161804Y0116563D01*
X0161418Y0115805D01*
X0160919Y0115118D01*
X0160318Y0114517D01*
X0159630Y0114017D01*
X0158873Y0113631D01*
X0158065Y0113368D01*
X0160235Y0114457D02*
X0171459Y0114457D01*
X0170207Y0116055D02*
X0161546Y0116055D01*
X0162112Y0117654D02*
X0169600Y0117654D01*
X0169600Y0119252D02*
X0162170Y0119252D01*
X0161732Y0120851D02*
X0170056Y0120851D01*
X0171094Y0122449D02*
X0160623Y0122449D01*
X0155411Y0127245D02*
X0176589Y0127245D01*
X0176120Y0128843D02*
X0155880Y0128843D01*
X0155880Y0130442D02*
X0175968Y0130442D01*
X0174370Y0132040D02*
X0155597Y0132040D01*
X0153812Y0125646D02*
X0178188Y0125646D01*
X0173633Y0124048D02*
X0110038Y0124048D01*
X0108439Y0122449D02*
X0145777Y0122449D01*
X0144668Y0120851D02*
X0106841Y0120851D01*
X0105242Y0119252D02*
X0133898Y0119252D01*
X0134061Y0119416D02*
X0131320Y0116674D01*
X0131320Y0114736D01*
X0136000Y0114736D01*
X0136000Y0119416D01*
X0134061Y0119416D01*
X0136000Y0119415D02*
X0136000Y0114736D01*
X0136000Y0114736D01*
X0136000Y0114735D01*
X0136000Y0110056D01*
X0137939Y0110056D01*
X0140680Y0112797D01*
X0140680Y0114735D01*
X0136000Y0114735D01*
X0136000Y0114735D01*
X0136000Y0110056D01*
X0134061Y0110056D01*
X0131320Y0112797D01*
X0131320Y0114735D01*
X0136000Y0114735D01*
X0136000Y0114736D01*
X0140680Y0114736D01*
X0140680Y0116674D01*
X0137939Y0119416D01*
X0136000Y0119415D01*
X0136000Y0119252D02*
X0136000Y0119252D01*
X0136000Y0117654D02*
X0136000Y0117654D01*
X0136000Y0116055D02*
X0136000Y0116055D01*
X0136000Y0114457D02*
X0136000Y0114457D01*
X0136000Y0112858D02*
X0136000Y0112858D01*
X0136000Y0111260D02*
X0136000Y0111260D01*
X0139143Y0111260D02*
X0207446Y0111260D01*
X0206594Y0112858D02*
X0140680Y0112858D01*
X0140680Y0114457D02*
X0146165Y0114457D01*
X0144854Y0116055D02*
X0140680Y0116055D01*
X0139700Y0117654D02*
X0144288Y0117654D01*
X0144230Y0119252D02*
X0138102Y0119252D01*
X0132300Y0117654D02*
X0103644Y0117654D01*
X0102045Y0116055D02*
X0131320Y0116055D01*
X0131320Y0114457D02*
X0100447Y0114457D01*
X0098848Y0112858D02*
X0131320Y0112858D01*
X0132857Y0111260D02*
X0097250Y0111260D01*
X0095651Y0109661D02*
X0209312Y0109661D01*
X0215700Y0109661D02*
X0216300Y0109661D01*
X0216300Y0111260D02*
X0215700Y0111260D01*
X0215700Y0112858D02*
X0216300Y0112858D01*
X0216062Y0098472D02*
X0245047Y0098472D01*
X0243046Y0096873D02*
X0216150Y0096873D01*
X0215762Y0095274D02*
X0241448Y0095274D01*
X0239849Y0093676D02*
X0214724Y0093676D01*
X0235645Y0079289D02*
X0278340Y0079289D01*
X0276788Y0080888D02*
X0237244Y0080888D01*
X0238842Y0082486D02*
X0276126Y0082486D01*
X0275900Y0084085D02*
X0240441Y0084085D01*
X0242039Y0085683D02*
X0276001Y0085683D01*
X0276663Y0087282D02*
X0243638Y0087282D01*
X0245236Y0088880D02*
X0278039Y0088880D01*
X0278151Y0090479D02*
X0246835Y0090479D01*
X0289618Y0108063D02*
X0296121Y0108063D01*
X0296121Y0109661D02*
X0293490Y0109661D01*
X0295990Y0111260D02*
X0296121Y0111260D01*
X0296121Y0100070D02*
X0293771Y0100070D01*
X0295258Y0098472D02*
X0296121Y0098472D01*
X0296121Y0096873D02*
X0295920Y0096873D01*
X0296100Y0095274D02*
X0296121Y0095274D01*
X0296121Y0093676D02*
X0295952Y0093676D01*
X0296121Y0092077D02*
X0295290Y0092077D01*
X0296121Y0090479D02*
X0293849Y0090479D01*
X0293961Y0088880D02*
X0296121Y0088880D01*
X0296121Y0087282D02*
X0295337Y0087282D01*
X0295999Y0085683D02*
X0296121Y0085683D01*
X0296100Y0084085D02*
X0296121Y0084085D01*
X0296121Y0082486D02*
X0295874Y0082486D01*
X0296121Y0080888D02*
X0295212Y0080888D01*
X0207202Y0045721D02*
X0204515Y0045721D01*
X0205950Y0044122D02*
X0206207Y0044122D01*
X0205968Y0040925D02*
X0205950Y0040925D01*
X0206631Y0039327D02*
X0205091Y0039327D01*
X0203493Y0037728D02*
X0208424Y0037728D01*
X0201000Y0037728D02*
X0201000Y0037728D01*
X0201000Y0039327D02*
X0201000Y0039327D01*
X0201000Y0040925D02*
X0201000Y0040925D01*
X0201000Y0042524D02*
X0201000Y0042524D01*
X0201000Y0044122D02*
X0201000Y0044122D01*
X0201000Y0045721D02*
X0201000Y0045721D01*
X0148392Y0095274D02*
X0081264Y0095274D01*
X0082863Y0096873D02*
X0145643Y0096873D01*
X0144518Y0098472D02*
X0084461Y0098472D01*
X0086060Y0100070D02*
X0133764Y0100070D01*
X0132166Y0101669D02*
X0087658Y0101669D01*
X0089257Y0103267D02*
X0131120Y0103267D01*
X0131120Y0104866D02*
X0090856Y0104866D01*
X0092454Y0106464D02*
X0131120Y0106464D01*
X0132426Y0108063D02*
X0094053Y0108063D01*
X0113812Y0125646D02*
X0148188Y0125646D01*
X0146589Y0127245D02*
X0145035Y0127245D01*
X0142378Y0133639D02*
X0113998Y0133639D01*
X0130250Y0141631D02*
X0147627Y0141631D01*
X0146029Y0143230D02*
X0131200Y0143230D01*
X0131200Y0144828D02*
X0144430Y0144828D01*
X0142832Y0146427D02*
X0131200Y0146427D01*
X0130064Y0148025D02*
X0141233Y0148025D01*
X0139635Y0149624D02*
X0128525Y0149624D01*
X0130124Y0151222D02*
X0138036Y0151222D01*
X0160347Y0148025D02*
X0163639Y0148025D01*
X0162789Y0146427D02*
X0161400Y0146427D01*
X0161400Y0144828D02*
X0162520Y0144828D01*
X0162712Y0143230D02*
X0161400Y0143230D01*
X0153400Y0122449D02*
X0153000Y0122449D01*
X0153000Y0120851D02*
X0153400Y0120851D01*
X0153400Y0119252D02*
X0153000Y0119252D01*
X0153000Y0117654D02*
X0153400Y0117654D01*
X0153400Y0116055D02*
X0153000Y0116055D01*
X0153000Y0114457D02*
X0153400Y0114457D01*
X0145710Y0104866D02*
X0140880Y0104866D01*
X0140880Y0103267D02*
X0144546Y0103267D01*
X0144000Y0101669D02*
X0139834Y0101669D01*
X0138236Y0100070D02*
X0144000Y0100070D01*
X0220849Y0162412D02*
X0225828Y0162412D01*
X0225700Y0164010D02*
X0219251Y0164010D01*
X0217652Y0165609D02*
X0225700Y0165609D01*
X0225977Y0167207D02*
X0216053Y0167207D01*
X0214455Y0168806D02*
X0227575Y0168806D01*
X0228119Y0170405D02*
X0212856Y0170405D01*
X0211258Y0172003D02*
X0226520Y0172003D01*
X0225900Y0173602D02*
X0209659Y0173602D01*
X0208061Y0175200D02*
X0225900Y0175200D01*
X0225900Y0176799D02*
X0206462Y0176799D01*
X0198088Y0189587D02*
X0198050Y0189587D01*
X0196489Y0191185D02*
X0195511Y0191185D01*
X0193950Y0189587D02*
X0193912Y0189587D01*
X0190800Y0204535D02*
X0185500Y0204535D01*
X0181200Y0204535D01*
X0181200Y0204936D01*
X0190800Y0204936D01*
X0190800Y0204535D01*
X0190800Y0205572D02*
X0191200Y0205572D01*
X0191200Y0207170D02*
X0190800Y0207170D01*
X0190800Y0208769D02*
X0191200Y0208769D01*
X0187255Y0208769D02*
X0184745Y0208769D01*
X0181200Y0208769D02*
X0180800Y0208769D01*
X0180800Y0207170D02*
X0181200Y0207170D01*
X0181200Y0205572D02*
X0180800Y0205572D01*
X0180800Y0204936D02*
X0180800Y0204535D01*
X0175500Y0204535D01*
X0171200Y0204535D01*
X0171200Y0204936D01*
X0180800Y0204936D01*
X0177255Y0208769D02*
X0174745Y0208769D01*
X0171200Y0208769D02*
X0170800Y0208769D01*
X0170800Y0207170D02*
X0171200Y0207170D01*
X0171200Y0205572D02*
X0170800Y0205572D01*
X0194745Y0208769D02*
X0197255Y0208769D01*
X0234551Y0178397D02*
X0278970Y0178397D01*
X0277372Y0176799D02*
X0236100Y0176799D01*
X0292034Y0191185D02*
X0296121Y0191185D01*
X0296121Y0189587D02*
X0294983Y0189587D01*
X0104755Y0210367D02*
X0103429Y0210367D01*
X0098571Y0210367D02*
X0093429Y0210367D01*
X0095028Y0208769D02*
X0096972Y0208769D01*
X0096080Y0189587D02*
X0098088Y0189587D01*
D28*
X0016000Y0204736D03*
X0283500Y0204736D03*
X0286000Y0042236D03*
D29*
X0193600Y0139536D02*
X0203800Y0149736D01*
X0211000Y0149736D01*
X0216000Y0154736D01*
X0193600Y0139536D02*
X0153400Y0139536D01*
X0138400Y0154536D01*
X0126400Y0154536D01*
X0126000Y0154736D01*
X0111000Y0164736D02*
X0098200Y0164736D01*
X0041200Y0107736D01*
X0041000Y0107236D01*
X0101200Y0168936D02*
X0101200Y0194736D01*
X0101000Y0194736D01*
X0111000Y0194736D02*
X0111400Y0194736D01*
X0111400Y0174936D01*
X0111000Y0174736D01*
X0131200Y0169536D02*
X0156000Y0144736D01*
X0131200Y0169536D02*
X0131200Y0192336D01*
X0113200Y0210336D01*
X0108400Y0210336D01*
X0103000Y0204936D01*
X0101200Y0204936D01*
X0101000Y0204736D01*
D30*
X0101200Y0168936D03*
M02*
