G75*
%MOIN*%
%OFA0B0*%
%FSLAX25Y25*%
%IPPOS*%
%LPD*%
%AMOC8*
5,1,8,0,0,1.08239X$1,22.5*
%
%ADD10C,0.00000*%
D10*
X0001000Y0029736D02*
X0001000Y0218436D01*
X0300921Y0218436D01*
X0300921Y0029736D01*
X0001000Y0029736D01*
X0278500Y0124736D02*
X0278502Y0124897D01*
X0278508Y0125057D01*
X0278518Y0125218D01*
X0278532Y0125378D01*
X0278550Y0125538D01*
X0278571Y0125697D01*
X0278597Y0125856D01*
X0278627Y0126014D01*
X0278660Y0126171D01*
X0278698Y0126328D01*
X0278739Y0126483D01*
X0278784Y0126637D01*
X0278833Y0126790D01*
X0278886Y0126942D01*
X0278942Y0127093D01*
X0279003Y0127242D01*
X0279066Y0127390D01*
X0279134Y0127536D01*
X0279205Y0127680D01*
X0279279Y0127822D01*
X0279357Y0127963D01*
X0279439Y0128101D01*
X0279524Y0128238D01*
X0279612Y0128372D01*
X0279704Y0128504D01*
X0279799Y0128634D01*
X0279897Y0128762D01*
X0279998Y0128887D01*
X0280102Y0129009D01*
X0280209Y0129129D01*
X0280319Y0129246D01*
X0280432Y0129361D01*
X0280548Y0129472D01*
X0280667Y0129581D01*
X0280788Y0129686D01*
X0280912Y0129789D01*
X0281038Y0129889D01*
X0281166Y0129985D01*
X0281297Y0130078D01*
X0281431Y0130168D01*
X0281566Y0130255D01*
X0281704Y0130338D01*
X0281843Y0130418D01*
X0281985Y0130494D01*
X0282128Y0130567D01*
X0282273Y0130636D01*
X0282420Y0130702D01*
X0282568Y0130764D01*
X0282718Y0130822D01*
X0282869Y0130877D01*
X0283022Y0130928D01*
X0283176Y0130975D01*
X0283331Y0131018D01*
X0283487Y0131057D01*
X0283643Y0131093D01*
X0283801Y0131124D01*
X0283959Y0131152D01*
X0284118Y0131176D01*
X0284278Y0131196D01*
X0284438Y0131212D01*
X0284598Y0131224D01*
X0284759Y0131232D01*
X0284920Y0131236D01*
X0285080Y0131236D01*
X0285241Y0131232D01*
X0285402Y0131224D01*
X0285562Y0131212D01*
X0285722Y0131196D01*
X0285882Y0131176D01*
X0286041Y0131152D01*
X0286199Y0131124D01*
X0286357Y0131093D01*
X0286513Y0131057D01*
X0286669Y0131018D01*
X0286824Y0130975D01*
X0286978Y0130928D01*
X0287131Y0130877D01*
X0287282Y0130822D01*
X0287432Y0130764D01*
X0287580Y0130702D01*
X0287727Y0130636D01*
X0287872Y0130567D01*
X0288015Y0130494D01*
X0288157Y0130418D01*
X0288296Y0130338D01*
X0288434Y0130255D01*
X0288569Y0130168D01*
X0288703Y0130078D01*
X0288834Y0129985D01*
X0288962Y0129889D01*
X0289088Y0129789D01*
X0289212Y0129686D01*
X0289333Y0129581D01*
X0289452Y0129472D01*
X0289568Y0129361D01*
X0289681Y0129246D01*
X0289791Y0129129D01*
X0289898Y0129009D01*
X0290002Y0128887D01*
X0290103Y0128762D01*
X0290201Y0128634D01*
X0290296Y0128504D01*
X0290388Y0128372D01*
X0290476Y0128238D01*
X0290561Y0128101D01*
X0290643Y0127963D01*
X0290721Y0127822D01*
X0290795Y0127680D01*
X0290866Y0127536D01*
X0290934Y0127390D01*
X0290997Y0127242D01*
X0291058Y0127093D01*
X0291114Y0126942D01*
X0291167Y0126790D01*
X0291216Y0126637D01*
X0291261Y0126483D01*
X0291302Y0126328D01*
X0291340Y0126171D01*
X0291373Y0126014D01*
X0291403Y0125856D01*
X0291429Y0125697D01*
X0291450Y0125538D01*
X0291468Y0125378D01*
X0291482Y0125218D01*
X0291492Y0125057D01*
X0291498Y0124897D01*
X0291500Y0124736D01*
X0291498Y0124575D01*
X0291492Y0124415D01*
X0291482Y0124254D01*
X0291468Y0124094D01*
X0291450Y0123934D01*
X0291429Y0123775D01*
X0291403Y0123616D01*
X0291373Y0123458D01*
X0291340Y0123301D01*
X0291302Y0123144D01*
X0291261Y0122989D01*
X0291216Y0122835D01*
X0291167Y0122682D01*
X0291114Y0122530D01*
X0291058Y0122379D01*
X0290997Y0122230D01*
X0290934Y0122082D01*
X0290866Y0121936D01*
X0290795Y0121792D01*
X0290721Y0121650D01*
X0290643Y0121509D01*
X0290561Y0121371D01*
X0290476Y0121234D01*
X0290388Y0121100D01*
X0290296Y0120968D01*
X0290201Y0120838D01*
X0290103Y0120710D01*
X0290002Y0120585D01*
X0289898Y0120463D01*
X0289791Y0120343D01*
X0289681Y0120226D01*
X0289568Y0120111D01*
X0289452Y0120000D01*
X0289333Y0119891D01*
X0289212Y0119786D01*
X0289088Y0119683D01*
X0288962Y0119583D01*
X0288834Y0119487D01*
X0288703Y0119394D01*
X0288569Y0119304D01*
X0288434Y0119217D01*
X0288296Y0119134D01*
X0288157Y0119054D01*
X0288015Y0118978D01*
X0287872Y0118905D01*
X0287727Y0118836D01*
X0287580Y0118770D01*
X0287432Y0118708D01*
X0287282Y0118650D01*
X0287131Y0118595D01*
X0286978Y0118544D01*
X0286824Y0118497D01*
X0286669Y0118454D01*
X0286513Y0118415D01*
X0286357Y0118379D01*
X0286199Y0118348D01*
X0286041Y0118320D01*
X0285882Y0118296D01*
X0285722Y0118276D01*
X0285562Y0118260D01*
X0285402Y0118248D01*
X0285241Y0118240D01*
X0285080Y0118236D01*
X0284920Y0118236D01*
X0284759Y0118240D01*
X0284598Y0118248D01*
X0284438Y0118260D01*
X0284278Y0118276D01*
X0284118Y0118296D01*
X0283959Y0118320D01*
X0283801Y0118348D01*
X0283643Y0118379D01*
X0283487Y0118415D01*
X0283331Y0118454D01*
X0283176Y0118497D01*
X0283022Y0118544D01*
X0282869Y0118595D01*
X0282718Y0118650D01*
X0282568Y0118708D01*
X0282420Y0118770D01*
X0282273Y0118836D01*
X0282128Y0118905D01*
X0281985Y0118978D01*
X0281843Y0119054D01*
X0281704Y0119134D01*
X0281566Y0119217D01*
X0281431Y0119304D01*
X0281297Y0119394D01*
X0281166Y0119487D01*
X0281038Y0119583D01*
X0280912Y0119683D01*
X0280788Y0119786D01*
X0280667Y0119891D01*
X0280548Y0120000D01*
X0280432Y0120111D01*
X0280319Y0120226D01*
X0280209Y0120343D01*
X0280102Y0120463D01*
X0279998Y0120585D01*
X0279897Y0120710D01*
X0279799Y0120838D01*
X0279704Y0120968D01*
X0279612Y0121100D01*
X0279524Y0121234D01*
X0279439Y0121371D01*
X0279357Y0121509D01*
X0279279Y0121650D01*
X0279205Y0121792D01*
X0279134Y0121936D01*
X0279066Y0122082D01*
X0279003Y0122230D01*
X0278942Y0122379D01*
X0278886Y0122530D01*
X0278833Y0122682D01*
X0278784Y0122835D01*
X0278739Y0122989D01*
X0278698Y0123144D01*
X0278660Y0123301D01*
X0278627Y0123458D01*
X0278597Y0123616D01*
X0278571Y0123775D01*
X0278550Y0123934D01*
X0278532Y0124094D01*
X0278518Y0124254D01*
X0278508Y0124415D01*
X0278502Y0124575D01*
X0278500Y0124736D01*
M02*
